<svg id="svg" version="1.1" xmlns="http://www.w3.org/2000/svg" xmlns:xlink="http://www.w3.org/1999/xlink" width="400" height="354.8872180451128" viewBox="0, 0, 400,354.8872180451128"><g id="svgg"><path id="path0" d="M212.955 188.475 C 211.686 188.615,209.370 189.077,207.808 189.504 C 206.247 189.930,204.069 190.315,202.969 190.360 C 201.868 190.404,200.750 190.607,200.484 190.811 C 199.816 191.323,197.080 192.282,195.475 192.567 C 193.993 192.830,193.920 192.957,194.656 194.008 C 195.289 194.911,198.552 195.191,198.868 194.369 C 199.139 193.663,202.136 192.724,204.116 192.724 C 205.042 192.724,206.251 192.494,206.804 192.213 C 209.101 191.046,210.476 190.594,211.766 190.582 C 212.517 190.575,213.531 190.341,214.020 190.062 C 214.508 189.783,215.251 189.549,215.672 189.542 C 216.260 189.533,216.395 189.365,216.252 188.820 C 216.150 188.429,215.885 188.135,215.664 188.166 C 215.443 188.197,214.224 188.336,212.955 188.475 M347.371 189.579 C 346.827 189.985,346.080 190.237,345.711 190.141 C 345.237 190.017,345.097 190.113,345.233 190.468 C 345.442 191.013,344.101 192.369,343.354 192.369 C 343.101 192.369,342.459 192.772,341.927 193.265 C 341.395 193.758,340.553 194.263,340.056 194.388 C 339.559 194.513,338.749 194.988,338.257 195.444 C 337.765 195.900,336.930 196.273,336.401 196.273 C 335.872 196.273,335.311 196.483,335.155 196.738 C 334.646 197.573,333.138 198.403,332.130 198.403 C 331.588 198.403,331.145 198.555,331.145 198.741 C 331.145 198.927,330.626 199.314,329.991 199.600 C 329.357 199.886,327.748 200.612,326.417 201.213 C 325.086 201.815,323.529 202.307,322.957 202.307 C 322.385 202.307,321.917 202.465,321.917 202.657 C 321.917 203.129,319.400 204.156,318.695 203.972 C 318.387 203.891,317.836 204.042,317.473 204.308 C 317.109 204.574,316.543 204.791,316.213 204.791 C 315.884 204.791,315.395 205.112,315.128 205.504 C 314.800 205.983,313.945 206.341,312.511 206.598 C 311.340 206.809,310.062 207.273,309.672 207.630 C 309.281 207.988,308.163 208.388,307.187 208.520 C 306.211 208.651,304.963 209.077,304.414 209.464 C 303.866 209.852,302.348 210.328,301.043 210.522 C 299.700 210.721,298.221 211.194,297.638 211.611 C 296.910 212.131,295.867 212.397,294.089 212.516 C 292.173 212.645,291.373 212.866,290.744 213.441 C 290.070 214.057,289.471 214.197,287.507 214.197 C 285.847 214.197,285.145 214.323,285.251 214.602 C 285.508 215.275,282.184 216.330,279.947 216.287 C 278.598 216.261,277.906 216.389,277.906 216.665 C 277.906 217.408,275.472 218.279,273.397 218.279 C 272.219 218.279,271.165 218.478,270.835 218.762 C 269.933 219.540,266.913 220.408,265.109 220.408 C 264.117 220.408,263.275 220.608,263.031 220.902 C 262.806 221.174,262.187 221.480,261.657 221.583 C 261.126 221.685,260.053 221.938,259.272 222.145 C 258.492 222.352,257.272 222.525,256.562 222.529 C 255.853 222.534,254.814 222.776,254.255 223.068 C 253.696 223.360,252.949 223.599,252.594 223.600 C 252.240 223.602,251.609 223.785,251.193 224.007 C 250.777 224.230,249.365 224.454,248.055 224.506 C 245.443 224.608,244.710 224.769,242.591 225.709 C 241.807 226.056,239.383 226.516,237.182 226.735 C 234.717 226.980,232.860 227.349,232.324 227.700 C 231.779 228.057,230.024 228.398,227.618 228.615 C 225.507 228.805,223.414 229.112,222.967 229.297 C 222.370 229.544,221.922 229.482,221.281 229.062 C 220.476 228.534,220.408 228.535,220.408 229.071 C 220.408 229.888,218.757 230.594,217.980 230.109 C 217.546 229.838,217.268 229.854,216.976 230.165 C 216.755 230.403,215.374 230.706,213.907 230.838 C 212.441 230.971,210.758 231.321,210.168 231.615 C 209.522 231.937,206.788 232.352,203.305 232.657 C 200.121 232.936,196.637 233.406,195.563 233.703 C 194.410 234.022,190.564 234.396,186.158 234.617 C 181.474 234.853,178.069 235.193,176.994 235.532 C 171.732 237.192,139.063 237.159,137.049 235.491 C 136.335 234.899,135.884 234.779,135.142 234.984 C 131.481 235.992,123.857 231.861,123.876 228.879 C 123.895 226.082,126.468 222.985,131.883 219.245 C 135.196 216.958,135.131 216.997,136.646 216.324 C 137.329 216.020,138.567 215.377,139.397 214.896 C 140.226 214.414,141.584 213.658,142.413 213.217 C 143.803 212.477,143.950 212.261,144.279 210.466 C 144.475 209.395,144.848 208.144,145.108 207.686 C 145.638 206.752,145.078 206.792,142.891 207.845 C 142.325 208.117,141.258 208.341,140.521 208.341 C 139.784 208.341,138.958 208.564,138.685 208.837 C 138.413 209.109,137.323 209.614,136.264 209.959 C 135.205 210.303,133.860 210.782,133.274 211.023 C 132.689 211.263,131.810 211.624,131.322 211.825 C 129.687 212.497,128.425 212.639,127.908 212.210 C 127.629 211.978,127.298 211.891,127.173 212.017 C 127.047 212.142,127.131 212.245,127.359 212.245 C 127.587 212.245,127.769 212.445,127.764 212.689 C 127.752 213.261,125.337 214.374,124.107 214.374 C 123.586 214.374,123.159 214.516,123.159 214.689 C 123.159 215.301,121.185 216.303,119.610 216.491 C 118.423 216.632,117.926 216.878,117.677 217.446 C 117.430 218.008,116.802 218.325,115.311 218.642 C 113.902 218.941,113.232 219.265,113.117 219.701 C 112.999 220.153,112.442 220.400,111.135 220.580 C 109.772 220.767,109.317 220.978,109.317 221.423 C 109.317 222.148,105.816 224.312,104.643 224.312 C 104.147 224.312,103.451 224.744,102.928 225.377 C 102.444 225.963,101.786 226.442,101.464 226.442 C 101.143 226.442,100.627 226.829,100.316 227.302 C 100.006 227.775,99.432 228.265,99.039 228.389 C 98.414 228.587,97.580 229.363,94.835 232.298 C 93.787 233.419,92.280 236.928,92.280 238.248 C 92.280 240.441,94.761 242.173,101.090 244.400 C 107.475 246.647,107.276 246.850,98.684 246.850 L 92.133 246.850 91.864 248.092 C 91.546 249.562,91.828 263.862,92.201 265.136 C 92.585 266.452,94.146 268.646,94.863 268.881 C 95.210 268.994,95.747 269.474,96.057 269.947 C 96.419 270.499,96.958 270.807,97.562 270.807 C 98.767 270.807,100.987 272.007,100.942 272.634 C 100.913 273.036,108.821 273.099,149.615 273.020 L 198.324 272.925 198.452 274.084 C 198.523 274.722,198.529 281.417,198.466 288.963 L 198.351 302.681 197.578 302.944 C 197.153 303.088,194.729 303.404,192.192 303.646 C 189.654 303.888,185.954 304.277,183.970 304.512 C 181.274 304.831,179.398 304.842,176.544 304.555 C 171.353 304.032,171.074 304.046,171.074 304.815 C 171.074 305.826,166.494 306.770,161.761 306.736 C 159.665 306.721,157.858 306.858,157.744 307.042 C 157.273 307.804,154.730 308.512,151.819 308.692 C 150.111 308.797,148.713 309.014,148.713 309.174 C 148.713 309.488,144.406 310.912,143.441 310.917 C 143.120 310.919,142.059 311.313,141.083 311.793 C 140.106 312.274,139.050 312.671,138.736 312.677 C 138.421 312.684,137.560 313.168,136.823 313.753 C 136.087 314.339,135.349 314.818,135.185 314.818 C 135.020 314.818,134.551 315.475,134.141 316.278 L 133.396 317.738 134.222 319.295 C 134.676 320.151,135.293 320.852,135.594 320.852 C 135.895 320.852,136.693 321.324,137.369 321.902 C 138.045 322.480,138.858 322.959,139.176 322.967 C 140.065 322.989,142.150 323.941,142.663 324.558 C 142.973 324.932,143.734 325.111,145.018 325.111 C 147.027 325.111,149.423 326.005,149.423 326.754 C 149.423 327.085,150.237 327.184,152.548 327.136 C 155.853 327.066,158.651 327.874,158.651 328.898 C 158.651 329.291,159.369 329.340,162.467 329.158 C 164.975 329.010,167.012 329.083,168.412 329.372 C 169.583 329.614,171.062 329.890,171.698 329.985 C 173.032 330.185,173.511 330.716,172.805 331.213 C 172.485 331.438,173.051 331.458,174.445 331.271 C 177.948 330.802,183.756 331.004,195.623 332.008 C 208.996 333.139,238.217 333.175,251.464 332.075 C 267.144 330.774,268.033 330.733,271.641 331.147 C 273.563 331.368,275.227 331.457,275.338 331.346 C 275.449 331.235,275.274 331.145,274.948 331.145 C 274.071 331.145,274.231 330.475,275.155 330.278 C 281.351 328.958,281.658 328.924,285.212 329.153 C 288.405 329.360,288.867 329.318,288.970 328.813 C 289.145 327.947,291.585 327.200,294.736 327.047 C 296.282 326.972,297.639 326.785,297.753 326.632 C 298.383 325.780,300.375 325.111,302.283 325.111 C 303.885 325.111,304.500 324.956,304.940 324.443 C 305.255 324.075,306.368 323.492,307.414 323.148 C 308.461 322.804,309.768 322.146,310.320 321.687 C 310.872 321.228,311.554 320.852,311.836 320.852 C 312.118 320.852,312.531 320.453,312.753 319.965 C 312.975 319.476,313.291 319.077,313.455 319.077 C 314.230 319.077,313.707 316.704,312.711 315.696 C 310.172 313.126,309.620 312.689,308.913 312.689 C 307.995 312.689,305.722 311.769,305.416 311.274 C 305.293 311.076,304.774 310.914,304.261 310.914 C 302.782 310.914,299.154 309.784,298.953 309.261 C 298.828 308.933,298.085 308.784,296.576 308.784 C 294.191 308.784,290.611 307.985,289.375 307.176 C 288.829 306.819,287.604 306.678,285.247 306.702 C 281.001 306.745,276.624 305.800,276.358 304.782 C 276.189 304.137,275.987 304.112,273.226 304.398 C 269.467 304.786,263.351 304.700,260.255 304.215 C 258.934 304.008,256.375 303.745,254.568 303.631 C 252.762 303.517,250.723 303.189,250.039 302.903 L 248.794 302.383 248.887 287.749 L 248.980 273.114 297.870 273.114 C 331.108 273.114,346.761 272.998,346.761 272.750 C 346.761 272.100,348.224 271.111,349.487 270.906 C 350.836 270.687,354.925 266.997,354.925 265.999 C 354.925 265.702,355.165 265.092,355.459 264.643 C 355.926 263.930,355.982 259.740,355.902 231.027 L 355.812 198.225 353.538 198.315 C 351.742 198.385,351.161 198.551,350.774 199.103 C 350.505 199.487,349.612 200.001,348.789 200.245 C 347.967 200.488,346.752 201.052,346.091 201.497 C 345.429 201.943,344.439 202.307,343.890 202.307 C 343.342 202.307,342.183 202.786,341.315 203.372 C 340.277 204.073,339.294 204.437,338.441 204.437 C 337.485 204.437,336.936 204.679,336.351 205.359 C 335.768 206.036,335.100 206.333,333.832 206.476 C 332.810 206.591,331.825 206.950,331.419 207.356 C 331.042 207.734,330.268 208.205,329.699 208.403 L 328.666 208.763 328.574 230.646 L 328.483 252.529 224.312 252.593 C 108.696 252.665,118.709 252.804,118.393 251.122 C 117.773 247.817,118.760 247.381,126.826 247.390 C 136.979 247.401,156.944 246.675,158.119 246.252 C 159.782 245.654,165.814 245.114,171.074 245.094 C 175.127 245.078,175.901 244.988,176.101 244.506 C 176.422 243.730,181.487 242.970,186.424 242.956 C 188.871 242.950,190.240 242.811,190.240 242.569 C 190.239 241.613,193.789 241.225,194.700 242.081 L 195.563 242.892 195.563 241.976 C 195.563 240.968,195.660 240.943,201.597 240.436 C 203.061 240.310,204.499 240.007,204.791 239.761 C 205.397 239.252,206.957 238.979,212.012 238.498 C 214.169 238.292,215.775 237.960,216.119 237.649 C 216.462 237.339,218.209 236.978,220.586 236.727 C 222.733 236.500,225.129 236.025,225.909 235.671 C 226.690 235.317,229.086 234.831,231.233 234.590 C 233.511 234.335,235.381 233.942,235.721 233.648 C 236.041 233.371,238.020 232.919,240.117 232.644 C 242.422 232.341,244.167 231.928,244.531 231.600 C 245.339 230.868,246.583 230.911,246.783 231.677 C 246.935 232.259,246.948 232.259,246.986 231.684 C 247.038 230.919,248.409 230.548,250.047 230.855 C 250.951 231.025,251.287 230.962,251.287 230.623 C 251.287 229.903,254.516 228.926,256.895 228.926 C 258.154 228.926,259.090 228.763,259.168 228.531 C 259.385 227.879,262.702 226.797,264.482 226.797 C 265.453 226.797,266.355 226.585,266.653 226.286 C 267.253 225.686,270.961 224.667,272.545 224.667 C 273.151 224.667,273.647 224.545,273.647 224.396 C 273.647 224.003,276.724 222.987,278.793 222.697 C 279.769 222.560,280.728 222.336,280.923 222.199 C 281.951 221.478,284.847 220.707,286.086 220.826 C 286.913 220.904,287.489 220.807,287.489 220.587 C 287.489 219.994,289.890 218.863,291.324 218.781 C 292.923 218.689,293.832 218.366,294.765 217.558 C 295.155 217.220,296.467 216.774,297.680 216.566 C 298.893 216.359,300.331 215.875,300.875 215.491 C 301.418 215.107,302.611 214.691,303.524 214.566 C 304.438 214.441,305.556 214.047,306.010 213.690 C 306.463 213.333,307.734 212.855,308.834 212.626 C 309.934 212.398,311.105 211.912,311.435 211.548 C 311.779 211.168,312.775 210.782,313.763 210.646 C 314.834 210.499,315.833 210.092,316.391 209.574 C 317.023 208.989,317.697 208.746,318.654 208.759 C 319.649 208.773,320.287 208.527,321.019 207.849 C 321.709 207.209,322.418 206.919,323.299 206.915 C 324.196 206.911,324.829 206.644,325.418 206.024 C 325.879 205.538,326.678 205.052,327.192 204.944 C 328.132 204.748,328.295 204.664,330.257 203.368 C 330.843 202.981,331.618 202.664,331.981 202.663 C 332.343 202.663,333.114 202.263,333.694 201.775 C 334.274 201.287,335.130 200.887,335.596 200.887 C 336.092 200.887,336.608 200.580,336.840 200.147 C 337.057 199.740,337.820 199.163,338.535 198.865 C 339.250 198.566,340.287 197.941,340.841 197.475 C 341.394 197.009,342.011 196.628,342.212 196.628 C 342.413 196.628,342.892 196.229,343.275 195.741 C 343.659 195.253,344.197 194.854,344.469 194.854 C 344.742 194.854,345.320 194.374,345.753 193.789 C 346.186 193.203,346.709 192.720,346.917 192.715 C 347.282 192.706,349.601 189.549,349.601 189.061 C 349.601 188.570,348.328 188.865,347.371 189.579 M338.154 274.259 C 338.789 274.337,339.827 274.337,340.461 274.259 C 341.096 274.180,340.577 274.115,339.308 274.115 C 338.039 274.115,337.520 274.180,338.154 274.259 M234.605 334.635 C 234.605 334.862,234.246 335.067,233.807 335.090 C 233.149 335.124,233.125 335.161,233.667 335.301 C 234.375 335.483,235.248 334.864,234.848 334.463 C 234.714 334.330,234.605 334.407,234.605 334.635 " stroke="none" fill="#ee5531" fill-rule="evenodd"></path><path id="path1" d="M62.094 73.842 C 61.008 74.928,61.053 82.768,62.150 83.536 C 62.562 83.825,62.792 84.233,62.662 84.444 C 62.505 84.698,62.941 84.813,63.954 84.786 C 64.795 84.763,65.204 84.672,64.862 84.582 C 63.078 84.116,64.712 83.762,68.649 83.762 C 73.279 83.762,74.904 84.006,73.621 84.509 C 73.049 84.733,73.097 84.781,73.913 84.802 C 74.626 84.820,74.889 84.654,74.889 84.188 C 74.889 83.837,75.034 83.398,75.211 83.212 C 75.734 82.664,75.827 74.836,75.322 73.934 C 74.684 72.794,63.222 72.714,62.094 73.842 M100.951 89.114 C 100.278 89.857,100.206 101.484,100.870 102.147 C 101.585 102.863,118.681 102.741,119.407 102.015 C 120.285 101.137,120.229 89.790,119.342 88.987 C 118.416 88.150,101.720 88.265,100.951 89.114 M134.039 89.025 C 132.986 90.189,133.172 104.822,134.250 105.577 C 135.457 106.422,155.662 106.368,156.603 105.517 C 157.576 104.636,157.558 89.846,156.583 88.964 C 155.542 88.022,134.896 88.078,134.039 89.025 M50.106 92.073 C 49.058 92.645,48.991 93.067,48.985 99.105 C 48.980 104.880,49.001 105.055,49.778 105.540 C 50.806 106.183,65.086 106.367,66.921 105.762 L 68.112 105.369 68.218 99.623 C 68.343 92.769,68.289 92.324,67.305 92.102 C 65.863 91.775,50.698 91.750,50.106 92.073 M15.734 101.597 C 15.216 102.307,15.397 110.222,15.947 110.884 C 16.631 111.709,28.204 111.717,29.380 110.894 C 30.410 110.172,30.598 102.698,29.611 101.711 C 28.874 100.974,16.265 100.871,15.734 101.597 M58.474 107.805 C 59.694 107.874,61.690 107.874,62.910 107.805 C 64.130 107.736,63.132 107.679,60.692 107.679 C 58.252 107.679,57.254 107.736,58.474 107.805 M145.437 107.799 C 146.075 107.878,147.033 107.877,147.566 107.796 C 148.100 107.715,147.578 107.650,146.406 107.652 C 145.235 107.654,144.799 107.720,145.437 107.799 M72.418 108.936 C 71.982 109.751,71.903 151.127,72.336 151.808 C 72.667 152.329,131.563 152.518,132.081 152.000 C 132.255 151.827,132.352 142.116,132.301 130.059 L 132.209 108.429 102.498 108.339 C 73.408 108.250,72.779 108.262,72.418 108.936 M143.550 116.865 C 143.455 117.112,143.420 121.385,143.472 126.359 L 143.567 135.404 235.465 135.493 C 320.360 135.576,327.413 135.627,328.012 136.169 C 328.627 136.726,328.660 137.955,328.660 160.410 C 328.660 176.478,328.780 184.184,329.033 184.437 C 329.416 184.820,331.145 184.663,331.145 184.246 C 331.145 184.118,331.903 183.618,332.831 183.134 C 333.758 182.650,334.601 182.142,334.704 182.006 C 334.807 181.869,335.525 181.467,336.301 181.112 C 337.684 180.479,338.577 179.955,341.102 178.293 C 341.795 177.836,342.581 177.462,342.848 177.462 C 343.115 177.462,343.586 177.239,343.894 176.966 C 344.395 176.522,347.016 175.023,349.682 173.655 C 350.215 173.382,350.744 173.009,350.857 172.826 C 350.970 172.643,351.372 172.493,351.751 172.493 C 352.130 172.493,352.440 172.370,352.440 172.219 C 352.440 172.068,353.027 171.629,353.745 171.243 C 354.463 170.857,355.261 170.330,355.520 170.072 C 355.899 169.693,355.989 165.327,355.989 147.278 L 355.989 124.953 355.047 122.963 C 353.897 120.533,351.896 118.787,348.702 117.424 L 346.336 116.415 245.029 116.415 C 163.577 116.415,143.688 116.503,143.550 116.865 M31.677 125.012 L 30.878 125.397 30.878 135.792 C 30.878 142.064,31.014 146.271,31.220 146.398 C 31.749 146.725,60.457 146.799,60.958 146.474 C 61.297 146.255,61.402 143.706,61.402 135.729 L 61.402 125.271 60.492 124.925 C 59.195 124.432,32.714 124.512,31.677 125.012 M309.328 150.157 C 308.357 150.319,307.239 150.605,306.843 150.794 C 306.447 150.982,304.605 151.401,302.751 151.725 C 300.896 152.050,298.660 152.544,297.782 152.823 C 296.903 153.102,295.426 153.330,294.499 153.329 C 293.571 153.328,292.813 153.476,292.813 153.657 C 292.813 153.838,291.894 154.097,290.772 154.233 C 289.650 154.369,288.571 154.602,288.376 154.751 C 288.181 154.900,287.149 155.140,286.083 155.283 C 283.459 155.636,283.023 155.977,281.775 158.651 C 281.183 159.920,280.230 161.917,279.657 163.088 C 279.084 164.259,278.616 165.362,278.616 165.538 C 278.616 165.714,278.137 166.873,277.551 168.112 C 276.965 169.352,276.486 170.605,276.486 170.897 C 276.486 171.189,276.339 171.429,276.160 171.429 C 275.980 171.429,275.720 171.948,275.583 172.582 C 275.445 173.217,275.233 173.815,275.111 173.913 C 274.905 174.078,274.259 175.392,273.103 177.995 C 272.844 178.580,272.518 179.459,272.381 179.947 C 272.243 180.435,271.291 182.751,270.265 185.093 C 269.239 187.436,268.296 189.697,268.170 190.119 C 267.647 191.868,265.424 192.116,264.799 190.496 C 264.632 190.062,263.480 188.453,262.239 186.920 C 260.998 185.387,259.543 183.478,259.005 182.677 C 258.468 181.876,257.575 180.735,257.021 180.140 C 256.467 179.546,255.237 178.021,254.288 176.752 C 253.338 175.484,252.475 174.366,252.368 174.268 C 252.261 174.170,251.540 173.292,250.766 172.316 C 249.992 171.340,249.272 170.461,249.167 170.364 C 249.062 170.266,248.318 169.308,247.515 168.234 C 244.480 164.178,243.278 163.557,240.994 164.862 C 240.506 165.141,239.268 165.375,238.243 165.382 C 237.218 165.389,236.380 165.540,236.380 165.716 C 236.380 165.893,235.541 166.151,234.516 166.289 C 233.492 166.426,232.493 166.660,232.298 166.808 C 232.103 166.956,230.911 167.189,229.649 167.327 C 228.386 167.464,227.189 167.685,226.987 167.817 C 226.589 168.077,223.430 168.799,220.586 169.281 C 216.080 170.045,214.575 171.071,215.128 173.002 C 215.299 173.598,215.445 175.444,215.452 177.105 C 215.459 178.766,215.693 181.162,215.972 182.431 C 216.570 185.151,216.644 187.272,216.152 187.576 C 215.931 187.713,216.003 188.278,216.349 189.105 C 216.698 189.940,217.028 192.547,217.256 196.273 C 217.453 199.494,217.752 202.609,217.921 203.194 C 218.090 203.780,218.337 205.856,218.471 207.808 C 218.636 210.213,218.891 211.558,219.261 211.979 C 219.839 212.635,221.295 212.820,221.629 212.280 C 221.738 212.104,222.819 211.845,224.031 211.704 C 225.244 211.563,226.482 211.328,226.783 211.181 C 227.739 210.714,232.251 209.755,233.540 209.745 C 234.224 209.740,235.182 209.507,235.670 209.228 C 236.158 208.949,237.396 208.715,238.421 208.708 C 239.445 208.701,240.284 208.550,240.284 208.372 C 240.284 208.194,240.963 207.937,241.792 207.801 C 244.707 207.323,244.909 206.701,243.993 201.009 C 243.233 196.287,243.851 195.275,245.856 197.959 C 246.403 198.691,246.970 199.343,247.116 199.408 C 247.263 199.474,247.382 199.762,247.382 200.049 C 247.382 200.336,247.861 201.081,248.446 201.705 C 249.030 202.329,249.509 202.968,249.510 203.126 C 249.516 204.058,251.868 205.537,253.061 205.359 C 253.744 205.257,255.345 205.032,256.617 204.859 C 257.889 204.687,259.247 204.379,259.634 204.176 C 260.393 203.776,263.622 203.083,266.193 202.766 C 267.072 202.658,267.984 202.416,268.221 202.228 C 268.458 202.041,269.656 201.798,270.883 201.690 C 272.110 201.581,273.194 201.378,273.292 201.237 C 273.477 200.970,276.121 200.397,280.005 199.783 C 283.617 199.211,286.069 197.616,286.069 195.839 C 286.069 195.492,286.199 195.209,286.357 195.209 C 286.515 195.209,286.846 194.370,287.092 193.345 C 288.165 188.870,289.796 188.388,289.796 192.547 C 289.796 194.006,290.006 195.442,290.305 196.026 L 290.814 197.021 293.677 196.775 C 295.251 196.640,296.619 196.412,296.717 196.269 C 297.050 195.778,300.440 195.109,303.372 194.955 C 305.482 194.844,306.300 194.671,306.300 194.333 C 306.300 193.857,308.824 193.233,312.689 192.754 C 316.411 192.292,318.035 190.817,317.369 188.502 C 316.882 186.810,315.864 176.845,315.875 173.877 C 315.879 172.589,315.724 171.071,315.530 170.505 C 315.195 169.530,315.048 168.036,314.087 155.825 C 313.583 149.430,313.594 149.443,309.328 150.157 M35.799 153.614 C 34.915 154.233,34.758 177.770,35.634 178.497 C 36.319 179.066,69.471 179.047,70.158 178.477 C 70.824 177.924,70.851 154.826,70.186 153.931 C 69.588 153.127,36.924 152.825,35.799 153.614 M92.113 161.047 C 91.704 162.090,91.881 220.814,92.294 221.312 C 92.767 221.881,98.872 221.658,103.942 220.885 C 105.964 220.577,108.258 220.411,109.039 220.515 C 111.090 220.791,112.930 220.417,113.121 219.686 C 113.232 219.264,113.937 218.934,115.381 218.627 C 116.576 218.373,117.480 217.992,117.480 217.741 C 117.480 217.499,117.708 217.111,117.987 216.880 C 118.636 216.341,118.832 162.336,118.189 161.135 C 117.635 160.099,92.517 160.015,92.113 161.047 M180.302 177.741 C 180.302 178.045,177.498 178.709,174.005 179.232 C 172.786 179.414,171.479 179.730,171.100 179.933 C 170.721 180.136,169.641 180.307,168.701 180.313 C 167.761 180.319,166.682 180.559,166.303 180.845 C 165.924 181.132,165.105 181.366,164.483 181.366 C 163.861 181.366,162.779 181.606,162.078 181.899 C 161.377 182.192,160.000 182.431,159.018 182.431 C 158.035 182.431,157.232 182.573,157.232 182.747 C 157.232 182.920,156.713 183.165,156.078 183.291 C 154.537 183.596,153.473 184.540,153.230 185.819 C 153.068 186.669,151.887 190.117,150.742 193.079 C 150.629 193.372,150.183 194.694,149.751 196.018 C 149.319 197.342,148.829 198.509,148.662 198.612 C 148.495 198.715,148.358 199.234,148.358 199.765 C 148.358 200.295,148.150 201.044,147.894 201.429 C 147.639 201.815,147.121 203.088,146.742 204.259 C 146.364 205.430,145.970 206.469,145.867 206.566 C 145.154 207.243,144.506 208.807,144.290 210.372 C 144.151 211.383,143.808 212.399,143.528 212.632 C 143.248 212.865,143.110 213.344,143.222 213.697 C 143.334 214.050,143.007 215.387,142.495 216.668 C 141.982 217.948,141.430 219.433,141.268 219.968 C 141.106 220.503,140.469 222.298,139.853 223.957 C 139.237 225.617,138.487 227.773,138.186 228.749 C 137.885 229.725,137.326 231.214,136.944 232.059 C 136.087 233.951,136.197 234.865,137.389 235.751 C 139.270 237.150,172.446 236.968,176.989 235.533 C 178.070 235.192,181.462 234.853,186.158 234.617 C 190.564 234.396,194.410 234.022,195.563 233.703 C 196.637 233.406,200.121 232.936,203.305 232.657 C 206.788 232.352,209.522 231.937,210.168 231.615 C 210.758 231.321,212.409 230.974,213.837 230.845 C 217.226 230.538,217.409 230.414,216.873 228.791 C 216.640 228.085,216.320 227.507,216.163 227.507 C 216.006 227.507,215.776 227.227,215.652 226.886 C 215.412 226.220,215.272 225.987,213.147 222.715 C 211.312 219.889,210.971 219.652,209.051 219.859 C 203.321 220.478,201.647 220.726,200.641 221.103 C 199.986 221.349,198.302 221.479,196.648 221.412 C 194.623 221.329,193.787 221.418,193.788 221.714 C 193.788 221.962,192.958 222.218,191.748 222.344 C 190.626 222.460,189.162 222.731,188.496 222.945 C 187.830 223.160,185.883 223.368,184.169 223.408 C 182.456 223.448,180.833 223.663,180.564 223.887 C 180.109 224.265,177.917 224.626,171.539 225.372 C 170.136 225.536,168.459 225.848,167.812 226.065 C 167.166 226.282,164.481 226.792,161.846 227.198 C 159.210 227.605,156.335 228.070,155.457 228.233 C 153.357 228.622,147.649 228.654,147.649 228.276 C 147.649 228.113,148.886 227.704,150.399 227.367 C 151.912 227.029,153.789 226.592,154.570 226.395 C 155.350 226.198,157.731 225.662,159.860 225.205 C 165.259 224.045,165.856 223.568,166.633 219.791 C 166.763 219.159,167.017 218.551,167.197 218.439 C 167.377 218.328,167.524 217.881,167.524 217.447 C 167.524 216.523,168.851 212.577,169.327 212.085 C 169.507 211.900,169.654 211.230,169.654 210.598 C 169.654 209.965,169.800 209.357,169.978 209.247 C 170.156 209.137,170.416 208.372,170.556 207.546 C 170.943 205.254,172.457 204.576,173.230 206.348 C 173.409 206.761,173.756 207.412,174.001 207.795 C 174.245 208.178,174.841 209.136,175.325 209.924 C 175.810 210.713,176.406 211.677,176.651 212.067 C 176.896 212.458,177.197 213.057,177.321 213.398 C 177.444 213.740,177.686 214.020,177.859 214.020 C 178.031 214.020,178.172 214.248,178.172 214.527 C 178.172 214.805,178.372 215.251,178.616 215.518 C 179.206 216.162,179.873 217.218,180.280 218.155 C 180.969 219.739,183.937 221.391,184.275 220.379 C 184.345 220.167,185.357 219.871,186.523 219.721 C 187.689 219.570,189.092 219.264,189.642 219.040 C 190.191 218.817,191.269 218.634,192.037 218.634 C 192.805 218.634,193.434 218.504,193.434 218.346 C 193.434 218.003,196.933 217.274,200.251 216.926 C 201.560 216.789,202.830 216.478,203.073 216.235 C 203.315 215.993,204.032 215.794,204.665 215.794 C 205.366 215.794,206.201 215.464,206.799 214.949 L 207.781 214.105 206.286 212.125 C 205.464 211.037,204.791 210.042,204.791 209.915 C 204.791 209.789,204.312 209.080,203.727 208.341 C 203.141 207.601,202.662 206.904,202.662 206.792 C 202.662 206.544,200.533 203.403,199.911 202.734 C 199.667 202.471,199.468 202.028,199.468 201.749 C 199.468 201.470,199.342 201.242,199.189 201.242 C 199.036 201.242,198.611 200.723,198.244 200.089 C 197.877 199.454,197.124 198.353,196.570 197.642 C 196.017 196.931,195.563 196.086,195.563 195.764 C 195.563 195.086,194.250 193.117,193.345 192.439 C 193.004 192.183,192.724 191.833,192.724 191.662 C 192.724 191.245,189.512 186.545,189.124 186.395 C 188.957 186.329,188.820 186.091,188.820 185.865 C 188.820 185.519,186.550 181.917,185.985 181.366 C 185.885 181.269,185.491 180.630,185.110 179.947 C 183.995 177.947,180.302 176.253,180.302 177.741 M46.383 180.922 C 49.738 180.980,55.328 180.981,58.806 180.922 C 62.283 180.864,59.539 180.817,52.706 180.816 C 45.874 180.816,43.029 180.864,46.383 180.922 M314.286 203.914 C 313.505 204.171,311.562 204.394,309.967 204.409 C 308.267 204.425,307.017 204.592,306.944 204.812 C 306.818 205.189,304.478 205.549,297.338 206.290 C 295.240 206.508,293.523 206.819,293.523 206.981 C 293.523 207.143,293.209 207.276,292.825 207.276 C 291.744 207.276,291.314 208.475,291.594 210.712 L 291.841 212.689 294.224 212.518 C 295.859 212.401,296.931 212.116,297.638 211.611 C 298.221 211.194,299.700 210.721,301.043 210.522 C 302.348 210.328,303.866 209.852,304.414 209.464 C 304.963 209.077,306.211 208.651,307.187 208.520 C 308.163 208.388,309.281 207.988,309.672 207.630 C 310.062 207.273,311.340 206.809,312.511 206.598 C 313.945 206.341,314.800 205.983,315.128 205.504 C 315.395 205.112,315.845 204.791,316.127 204.791 C 316.409 204.791,316.985 204.607,317.407 204.381 C 319.032 203.511,316.608 203.149,314.286 203.914 M316.436 209.533 C 315.833 210.092,314.866 210.495,313.763 210.646 C 312.775 210.782,311.779 211.168,311.435 211.548 C 311.105 211.912,309.934 212.398,308.834 212.626 C 307.734 212.855,306.463 213.333,306.010 213.690 C 305.556 214.047,304.438 214.441,303.524 214.566 C 302.611 214.691,301.418 215.107,300.875 215.491 C 300.331 215.875,298.893 216.359,297.680 216.566 C 296.467 216.774,295.155 217.220,294.765 217.558 C 294.374 217.896,293.776 218.271,293.434 218.392 C 292.456 218.737,292.519 225.001,293.509 225.898 C 293.965 226.310,294.426 226.434,294.840 226.257 C 295.189 226.108,296.193 225.860,297.072 225.705 C 299.229 225.327,301.858 224.715,303.945 224.106 C 304.895 223.829,306.420 223.602,307.334 223.602 C 308.249 223.602,309.149 223.460,309.335 223.285 C 309.777 222.868,312.627 222.204,315.609 221.823 C 319.746 221.294,320.183 220.656,319.754 215.761 C 319.116 208.474,318.608 207.520,316.436 209.533 M274.534 209.797 C 273.949 209.987,272.272 210.291,270.807 210.472 C 269.343 210.654,267.427 210.960,266.548 211.153 C 265.670 211.346,264.120 211.511,263.105 211.520 C 262.089 211.528,260.891 211.684,260.443 211.865 C 259.994 212.047,259.188 212.290,258.651 212.405 C 257.298 212.694,257.369 213.902,258.838 215.552 C 260.073 216.941,264.824 217.596,265.212 216.431 C 265.357 215.998,268.662 215.254,272.227 214.854 C 273.301 214.733,274.279 214.479,274.402 214.288 C 274.524 214.098,275.402 213.855,276.354 213.748 C 278.404 213.518,280.107 211.967,279.951 210.470 C 279.846 209.468,276.738 209.082,274.534 209.797 M240.639 214.760 C 240.639 214.910,239.720 215.135,238.598 215.259 C 237.476 215.383,235.488 215.713,234.180 215.994 C 232.873 216.274,230.677 216.504,229.300 216.504 C 227.923 216.504,226.797 216.649,226.797 216.826 C 226.797 217.003,225.958 217.248,224.933 217.371 C 219.711 217.998,219.162 218.493,219.711 222.073 C 219.914 223.402,220.176 225.404,220.293 226.522 C 220.540 228.888,221.514 229.899,222.967 229.297 C 223.414 229.112,225.507 228.805,227.618 228.615 C 230.024 228.398,231.779 228.057,232.324 227.700 C 232.860 227.349,234.717 226.980,237.182 226.735 C 239.376 226.517,241.810 226.057,242.591 225.712 C 243.372 225.368,244.450 224.952,244.987 224.788 C 246.173 224.425,246.107 224.843,245.799 219.683 C 245.570 215.848,245.466 215.364,244.777 214.919 C 243.983 214.407,240.639 214.278,240.639 214.760 M146.677 229.176 C 146.241 229.260,145.442 229.263,144.903 229.181 C 144.363 229.099,144.720 229.031,145.697 229.028 C 146.673 229.025,147.114 229.092,146.677 229.176 M244.509 231.597 C 244.172 231.934,242.519 232.328,240.136 232.641 C 238.027 232.918,236.042 233.371,235.721 233.648 C 235.381 233.942,233.511 234.335,231.233 234.590 C 229.086 234.831,226.690 235.317,225.909 235.671 C 225.129 236.025,222.733 236.500,220.586 236.727 C 218.209 236.978,216.462 237.339,216.119 237.649 C 215.775 237.960,214.169 238.292,212.012 238.498 C 206.957 238.979,205.397 239.252,204.791 239.761 C 204.499 240.007,203.061 240.310,201.597 240.436 C 195.390 240.966,195.563 240.913,195.563 242.282 C 195.563 243.492,196.229 244.836,197.427 246.046 C 198.177 246.803,199.512 246.838,201.420 246.150 C 202.201 245.869,203.520 245.632,204.353 245.623 C 205.185 245.615,206.143 245.455,206.482 245.267 C 207.238 244.850,209.986 244.217,212.600 243.859 C 213.673 243.711,215.002 243.406,215.551 243.180 C 216.101 242.954,217.089 242.768,217.748 242.768 C 218.407 242.768,219.040 242.618,219.153 242.434 C 219.267 242.250,220.115 242.002,221.038 241.884 C 221.960 241.765,223.558 241.420,224.589 241.117 C 225.619 240.814,227.097 240.627,227.872 240.701 C 228.815 240.791,229.281 240.692,229.281 240.404 C 229.281 240.155,229.995 239.884,230.967 239.764 C 231.894 239.649,233.144 239.400,233.743 239.210 C 234.343 239.020,235.429 238.864,236.156 238.864 C 236.884 238.864,237.911 238.646,238.438 238.380 C 238.965 238.113,240.976 237.594,242.905 237.226 C 247.278 236.393,247.716 235.945,247.055 232.990 C 246.588 230.907,245.691 230.415,244.509 231.597 M139.401 247.279 C 139.842 247.363,140.481 247.360,140.820 247.271 C 141.160 247.183,140.799 247.113,140.018 247.117 C 139.237 247.121,138.959 247.194,139.401 247.279 " stroke="none" fill="#2a2b81" fill-rule="evenodd"></path><path id="path2" d="M59.708 78.172 L 59.805 84.650 61.003 84.764 C 62.610 84.918,63.227 84.290,62.186 83.561 C 61.055 82.769,60.981 74.955,62.094 73.842 C 63.222 72.714,74.684 72.794,75.322 73.934 C 75.827 74.836,75.734 82.664,75.211 83.212 C 74.542 83.913,74.862 84.827,75.776 84.827 C 76.329 84.827,76.664 84.626,76.664 84.295 C 76.664 84.002,76.903 83.762,77.196 83.762 C 77.644 83.762,77.728 82.973,77.728 78.793 C 77.728 74.613,77.644 73.824,77.196 73.824 C 76.841 73.824,76.664 73.469,76.664 72.760 L 76.664 71.695 68.138 71.695 L 59.611 71.695 59.708 78.172 M64.241 84.076 C 64.241 84.602,65.682 84.817,69.210 84.817 C 72.957 84.817,74.533 84.560,73.766 84.073 C 73.134 83.673,64.241 83.675,64.241 84.076 M99.460 87.464 C 98.668 88.300,98.656 88.436,98.751 95.887 L 98.846 103.461 109.760 103.554 C 119.313 103.637,120.674 103.581,120.674 103.111 C 120.674 102.815,120.914 102.573,121.207 102.573 C 121.663 102.573,121.739 101.532,121.739 95.335 C 121.739 89.229,121.656 88.065,121.207 87.893 C 120.914 87.781,120.674 87.444,120.674 87.145 C 120.674 86.669,119.400 86.602,110.470 86.608 L 100.266 86.614 99.460 87.464 M132.464 87.468 C 131.657 88.319,131.654 88.362,131.754 97.578 L 131.854 106.833 101.458 106.833 C 74.067 106.832,71.040 106.888,70.845 107.394 C 70.727 107.702,70.630 117.605,70.630 129.399 L 70.630 150.843 53.363 150.843 L 36.097 150.843 34.903 152.072 L 33.709 153.301 33.802 166.535 L 33.895 179.769 34.783 179.883 C 35.271 179.946,35.830 180.185,36.025 180.416 C 36.555 181.041,69.565 181.016,69.565 180.390 C 69.565 180.134,70.015 179.947,70.630 179.947 C 71.340 179.947,71.695 179.769,71.695 179.414 C 71.695 179.122,71.934 178.882,72.227 178.882 C 72.690 178.882,72.760 177.265,72.760 166.460 L 72.760 154.037 76.309 154.037 C 78.510 154.037,79.858 154.176,79.858 154.403 C 79.858 154.822,82.302 154.745,82.566 154.318 C 82.661 154.164,94.062 154.037,107.902 154.037 L 133.064 154.037 133.973 153.129 L 134.882 152.220 134.866 130.187 C 134.857 118.069,134.932 108.073,135.032 107.973 C 135.131 107.874,140.009 107.798,145.872 107.805 C 154.222 107.815,156.588 107.718,156.793 107.359 C 156.936 107.107,157.453 106.845,157.941 106.778 L 158.829 106.655 158.924 97.483 C 159.018 88.376,159.013 88.305,158.214 87.463 L 157.409 86.614 145.342 86.614 L 133.274 86.614 132.464 87.468 M119.342 88.987 C 120.229 89.790,120.285 101.137,119.407 102.015 C 118.681 102.741,101.585 102.863,100.870 102.147 C 100.206 101.484,100.278 89.857,100.951 89.114 C 101.720 88.265,118.416 88.150,119.342 88.987 M156.583 88.964 C 157.558 89.846,157.576 104.636,156.603 105.517 C 155.662 106.368,135.457 106.422,134.250 105.577 C 133.172 104.822,132.986 90.189,134.039 89.025 C 134.896 88.078,155.542 88.022,156.583 88.964 M48.625 90.328 C 48.625 90.621,48.385 90.861,48.092 90.861 C 47.799 90.861,47.560 91.032,47.560 91.241 C 47.560 91.450,47.320 91.861,47.028 92.154 C 46.594 92.587,46.495 93.868,46.495 99.060 C 46.495 104.399,46.582 105.468,47.028 105.639 C 47.320 105.752,47.560 106.066,47.560 106.338 C 47.560 106.647,47.946 106.832,48.587 106.832 C 49.151 106.832,49.697 107.049,49.798 107.314 C 50.030 107.917,66.602 107.808,67.210 107.200 C 67.412 106.998,68.025 106.832,68.571 106.832 L 69.565 106.832 69.565 98.846 C 69.565 91.985,69.490 90.861,69.033 90.861 C 68.740 90.861,68.500 90.621,68.500 90.328 C 68.500 89.868,67.160 89.796,58.563 89.796 C 49.965 89.796,48.625 89.868,48.625 90.328 M67.305 92.102 C 68.289 92.324,68.343 92.769,68.218 99.623 L 68.112 105.369 66.921 105.762 C 65.086 106.367,50.806 106.183,49.778 105.540 C 49.001 105.055,48.980 104.880,48.985 99.105 C 48.991 93.067,49.058 92.645,50.106 92.073 C 50.698 91.750,65.863 91.775,67.305 92.102 M27.862 99.379 C 28.005 99.611,25.556 99.734,20.776 99.734 L 13.471 99.734 13.568 106.211 L 13.665 112.689 22.094 112.784 C 29.159 112.863,30.524 112.798,30.524 112.378 C 30.524 112.103,30.763 111.785,31.056 111.673 C 31.496 111.504,31.588 110.548,31.588 106.134 C 31.588 101.628,31.506 100.799,31.056 100.799 C 30.763 100.799,30.524 100.559,30.524 100.266 C 30.524 99.973,30.284 99.734,29.991 99.734 C 29.698 99.734,29.459 99.574,29.459 99.379 C 29.459 99.184,29.050 99.024,28.550 99.024 C 28.035 99.024,27.737 99.178,27.862 99.379 M29.611 101.711 C 30.598 102.698,30.410 110.172,29.380 110.894 C 28.204 111.717,16.631 111.709,15.947 110.884 C 15.397 110.222,15.216 102.307,15.734 101.597 C 16.265 100.871,28.874 100.974,29.611 101.711 M132.301 130.059 C 132.352 142.116,132.255 151.827,132.081 152.000 C 131.563 152.518,72.667 152.329,72.336 151.808 C 71.903 151.127,71.982 109.751,72.418 108.936 C 72.779 108.262,73.408 108.250,102.498 108.339 L 132.209 108.429 132.301 130.059 M142.591 114.885 C 142.017 115.035,141.970 115.861,141.970 125.858 C 141.970 135.844,142.017 136.683,142.591 136.860 C 142.933 136.966,143.489 137.201,143.828 137.382 C 144.202 137.581,180.389 137.711,235.843 137.711 L 327.240 137.711 327.240 161.846 C 327.240 183.062,327.305 185.980,327.773 185.980 C 328.066 185.980,328.305 186.220,328.305 186.513 C 328.305 187.220,330.035 187.220,330.306 186.513 C 330.419 186.220,330.818 185.980,331.194 185.980 C 331.569 185.980,331.969 185.741,332.081 185.448 C 332.193 185.155,332.673 184.916,333.146 184.916 C 333.619 184.916,334.098 184.676,334.211 184.383 C 334.323 184.091,334.637 183.851,334.909 183.851 C 335.181 183.851,335.404 183.691,335.404 183.496 C 335.404 183.301,335.803 183.141,336.291 183.141 C 336.843 183.141,337.178 182.940,337.178 182.609 C 337.178 182.254,337.533 182.076,338.243 182.076 C 338.953 182.076,339.308 181.899,339.308 181.544 C 339.308 181.251,339.616 181.012,339.992 181.012 C 340.369 181.012,340.916 180.772,341.209 180.479 C 341.502 180.186,341.913 179.947,342.122 179.947 C 342.331 179.947,342.502 179.707,342.502 179.414 C 342.502 179.062,342.854 178.882,343.542 178.882 C 344.113 178.882,344.821 178.642,345.113 178.350 C 345.406 178.057,345.826 177.817,346.047 177.817 C 346.268 177.817,346.350 177.657,346.229 177.462 C 346.107 177.266,346.375 177.102,346.829 177.096 C 347.718 177.083,349.246 175.989,349.246 175.365 C 349.246 175.152,349.778 174.978,350.429 174.978 C 351.272 174.978,351.909 174.675,352.647 173.923 C 353.217 173.343,354.042 172.864,354.481 172.858 C 354.950 172.852,355.280 172.628,355.280 172.316 C 355.280 172.023,355.437 171.783,355.630 171.783 C 357.461 171.783,357.409 172.518,357.409 146.493 L 357.409 122.425 356.344 121.384 C 355.759 120.812,355.280 120.019,355.280 119.622 C 355.280 119.210,355.046 118.900,354.736 118.900 C 354.437 118.900,354.101 118.660,353.988 118.367 C 353.876 118.075,353.499 117.835,353.150 117.835 C 352.801 117.835,352.424 117.595,352.312 117.303 C 352.199 117.010,351.720 116.770,351.247 116.770 C 350.774 116.770,350.295 116.531,350.182 116.238 C 350.056 115.909,349.516 115.705,348.768 115.705 C 348.103 115.705,347.359 115.466,347.116 115.173 C 346.691 114.661,144.539 114.376,142.591 114.885 M348.702 117.424 C 351.896 118.787,353.897 120.533,355.047 122.963 L 355.989 124.953 355.989 147.278 C 355.989 165.327,355.899 169.693,355.520 170.072 C 355.261 170.330,354.463 170.857,353.745 171.243 C 353.027 171.629,352.440 172.068,352.440 172.219 C 352.440 172.370,352.130 172.493,351.751 172.493 C 351.372 172.493,350.970 172.643,350.857 172.826 C 350.744 173.009,350.215 173.382,349.682 173.655 C 347.016 175.023,344.395 176.522,343.894 176.966 C 343.586 177.239,343.115 177.462,342.848 177.462 C 342.581 177.462,341.795 177.836,341.102 178.293 C 338.577 179.955,337.684 180.479,336.301 181.112 C 335.525 181.467,334.807 181.869,334.704 182.006 C 334.601 182.142,333.758 182.650,332.831 183.134 C 331.903 183.618,331.145 184.118,331.145 184.246 C 331.145 184.663,329.416 184.820,329.033 184.437 C 328.780 184.184,328.660 176.478,328.660 160.410 C 328.660 137.955,328.627 136.726,328.012 136.169 C 327.413 135.627,320.360 135.576,235.465 135.493 L 143.567 135.404 143.472 126.359 C 143.420 121.385,143.455 117.112,143.550 116.865 C 143.688 116.503,163.577 116.415,245.029 116.415 L 346.336 116.415 348.702 117.424 M30.524 123.336 C 30.524 123.629,30.284 123.869,29.991 123.869 C 29.698 123.869,29.459 124.108,29.459 124.401 C 29.459 124.694,29.299 124.933,29.104 124.933 C 28.875 124.933,28.749 128.777,28.749 135.755 C 28.749 147.509,28.830 148.004,30.759 148.004 C 31.192 148.004,31.645 148.163,31.766 148.358 C 32.049 148.817,60.058 148.846,60.532 148.389 C 60.718 148.210,61.269 148.010,61.757 147.945 L 62.644 147.826 62.738 135.847 C 62.820 125.348,62.765 123.869,62.294 123.869 C 61.999 123.869,61.757 123.629,61.757 123.336 C 61.757 122.871,59.785 122.804,46.140 122.804 C 32.495 122.804,30.524 122.871,30.524 123.336 M60.492 124.925 L 61.402 125.271 61.402 135.729 C 61.402 143.706,61.297 146.255,60.958 146.474 C 60.457 146.799,31.749 146.725,31.220 146.398 C 31.014 146.271,30.878 142.064,30.878 135.792 L 30.878 125.397 31.677 125.012 C 32.714 124.512,59.195 124.432,60.492 124.925 M310.204 148.536 C 310.204 148.945,309.751 149.068,308.252 149.068 C 307.178 149.068,306.300 149.228,306.300 149.423 C 306.300 149.618,305.541 149.780,304.614 149.783 C 302.569 149.789,301.271 150.103,301.533 150.528 C 301.640 150.701,300.595 150.843,299.211 150.843 C 297.302 150.843,296.645 150.971,296.490 151.375 C 296.344 151.757,295.746 151.908,294.372 151.908 C 292.907 151.908,292.458 152.033,292.458 152.440 C 292.458 152.866,291.925 152.972,289.796 152.972 C 287.666 152.972,287.134 153.079,287.134 153.505 C 287.134 153.914,286.680 154.037,285.182 154.037 C 284.108 154.037,283.230 154.184,283.230 154.364 C 283.230 154.544,282.751 154.796,282.165 154.925 C 281.340 155.106,281.100 155.352,281.100 156.018 C 281.100 156.490,280.953 156.877,280.774 156.877 C 280.594 156.877,280.342 157.354,280.214 157.937 C 280.086 158.521,279.833 159.089,279.653 159.201 C 279.473 159.312,279.326 159.793,279.326 160.269 C 279.326 160.803,279.121 161.136,278.793 161.136 C 278.409 161.136,278.261 161.530,278.261 162.555 C 278.261 163.581,278.113 163.975,277.728 163.975 C 277.374 163.975,277.196 164.330,277.196 165.040 C 277.196 165.750,277.019 166.105,276.664 166.105 C 276.362 166.105,276.131 166.423,276.131 166.840 C 276.131 167.244,275.892 167.815,275.599 168.107 C 275.306 168.400,275.067 168.948,275.067 169.324 C 275.067 169.701,274.907 170.009,274.712 170.009 C 274.516 170.009,274.357 170.648,274.357 171.429 C 274.357 172.454,274.209 172.848,273.824 172.848 C 273.469 172.848,273.292 173.203,273.292 173.913 C 273.292 174.623,273.114 174.978,272.760 174.978 C 272.462 174.978,272.227 175.294,272.227 175.694 C 272.227 176.281,272.067 176.371,271.343 176.189 C 270.714 176.031,270.396 176.132,270.240 176.537 C 270.083 176.949,269.558 177.107,268.356 177.107 C 267.440 177.107,266.531 177.267,266.336 177.461 C 266.142 177.656,264.039 177.827,261.665 177.842 L 257.347 177.869 256.269 176.766 C 255.676 176.160,255.191 175.509,255.191 175.321 C 255.191 175.132,254.951 174.978,254.658 174.978 C 254.366 174.978,254.126 174.738,254.126 174.445 C 254.126 174.153,253.886 173.913,253.594 173.913 C 253.294 173.913,253.061 173.596,253.061 173.186 C 253.061 172.787,252.662 172.089,252.174 171.637 C 251.686 171.185,251.287 170.633,251.287 170.412 C 251.287 170.190,251.047 170.009,250.754 170.009 C 250.446 170.009,250.222 169.688,250.222 169.246 C 250.222 168.477,248.091 166.105,247.400 166.105 C 247.195 166.105,247.028 165.865,247.028 165.572 C 247.028 165.280,246.788 165.040,246.495 165.040 C 246.202 165.040,245.963 164.882,245.963 164.689 C 245.963 164.496,245.688 164.017,245.351 163.624 C 244.562 162.702,240.284 162.549,240.284 163.443 C 240.284 163.863,239.785 163.975,237.927 163.975 C 236.278 163.975,235.452 164.131,235.177 164.493 C 234.918 164.833,234.021 165.036,232.564 165.084 C 230.987 165.135,230.346 165.293,230.346 165.631 C 230.346 165.968,229.789 166.105,228.415 166.105 C 227.353 166.105,226.385 166.264,226.264 166.460 C 226.144 166.655,225.176 166.815,224.114 166.815 C 222.634 166.815,222.183 166.939,222.183 167.347 C 222.183 167.778,221.611 167.879,219.166 167.879 C 216.721 167.879,216.149 167.980,216.149 168.412 C 216.149 168.767,215.794 168.944,215.084 168.944 C 214.374 168.944,214.020 169.122,214.020 169.476 C 214.020 169.769,213.808 170.009,213.551 170.009 C 212.826 170.009,212.751 173.502,213.469 173.778 C 213.933 173.956,214.020 174.845,214.020 179.452 C 214.020 184.072,214.102 184.916,214.552 184.916 C 214.845 184.916,215.084 185.155,215.084 185.448 C 215.084 185.833,214.690 185.980,213.665 185.980 C 212.639 185.980,212.245 186.128,212.245 186.513 C 212.245 186.898,211.849 187.045,210.814 187.045 C 209.870 187.045,209.314 187.226,209.179 187.578 C 209.021 187.988,208.338 188.110,206.191 188.110 C 204.126 188.110,203.333 188.243,203.119 188.626 C 202.960 188.909,202.243 189.181,201.527 189.229 C 200.810 189.277,200.295 189.432,200.382 189.574 C 200.553 189.851,195.192 190.146,193.878 189.932 C 193.309 189.839,193.079 189.558,193.079 188.956 C 193.079 188.441,192.871 188.110,192.547 188.110 C 192.254 188.110,192.014 187.870,192.014 187.578 C 192.014 187.285,191.775 187.045,191.482 187.045 C 191.125 187.045,190.949 186.688,190.949 185.960 C 190.949 185.280,190.808 184.961,190.571 185.108 C 190.362 185.237,190.104 185.007,189.997 184.596 C 189.890 184.186,189.581 183.851,189.311 183.851 C 189.041 183.851,188.820 183.510,188.820 183.093 C 188.820 182.676,188.421 181.965,187.933 181.513 C 187.445 181.061,187.045 180.420,187.045 180.088 C 187.045 179.440,184.837 177.107,184.223 177.107 C 184.019 177.107,183.851 176.868,183.851 176.575 C 183.851 176.156,183.357 176.043,181.533 176.043 C 179.800 176.043,179.163 176.177,179.010 176.575 C 178.868 176.947,178.288 177.107,177.090 177.107 C 176.147 177.107,175.276 177.267,175.155 177.462 C 175.035 177.657,173.947 177.823,172.739 177.830 C 171.507 177.837,170.151 178.065,169.654 178.350 C 169.166 178.629,168.168 178.862,167.436 178.869 C 166.495 178.878,166.105 179.038,166.105 179.414 C 166.105 179.843,165.551 179.947,163.254 179.947 C 161.048 179.947,160.357 180.067,160.199 180.479 C 160.061 180.841,159.494 181.012,158.436 181.012 C 157.287 181.012,156.877 181.151,156.877 181.544 C 156.877 181.953,156.423 182.076,154.925 182.076 C 153.102 182.076,152.972 182.133,152.972 182.926 C 152.972 183.393,152.733 183.867,152.440 183.979 C 152.147 184.092,151.908 184.588,151.908 185.082 C 151.908 185.644,151.708 185.980,151.375 185.980 C 150.983 185.980,150.843 186.390,150.843 187.540 C 150.843 188.478,150.662 189.168,150.389 189.273 C 150.140 189.369,149.896 189.960,149.849 190.587 C 149.801 191.214,149.526 191.962,149.238 192.251 C 148.949 192.539,148.713 193.322,148.713 193.992 C 148.713 194.661,148.554 195.209,148.358 195.209 C 148.163 195.209,148.004 195.539,148.004 195.944 C 148.004 196.348,147.764 196.918,147.471 197.211 C 147.158 197.524,146.939 198.392,146.939 199.316 C 146.939 200.476,146.799 200.887,146.406 200.887 C 146.012 200.887,145.874 201.301,145.874 202.484 C 145.874 203.668,145.736 204.082,145.342 204.082 C 145.049 204.082,144.809 204.321,144.809 204.614 C 144.809 204.907,144.570 205.146,144.277 205.146 C 143.984 205.146,143.744 205.386,143.744 205.679 C 143.744 206.087,143.291 206.211,141.792 206.211 C 140.719 206.211,139.840 206.371,139.840 206.566 C 139.840 206.761,139.540 206.921,139.174 206.921 C 138.807 206.921,138.309 207.161,138.066 207.453 C 137.773 207.806,136.979 207.986,135.715 207.986 C 134.255 207.986,133.807 208.111,133.807 208.518 C 133.807 208.811,133.567 209.051,133.274 209.051 C 132.981 209.051,132.742 209.290,132.742 209.583 C 132.742 209.992,132.288 210.115,130.790 210.115 C 129.565 210.115,128.838 210.266,128.838 210.520 C 128.838 210.742,128.574 211.117,128.251 211.353 C 126.702 212.486,128.931 212.833,131.322 211.832 C 133.719 210.828,134.484 210.538,136.264 209.959 C 137.323 209.614,138.413 209.109,138.685 208.837 C 138.958 208.564,139.857 208.341,140.682 208.341 C 141.507 208.341,142.335 208.207,142.520 208.044 C 142.705 207.882,143.576 207.483,144.454 207.158 C 145.972 206.597,146.085 206.458,146.731 204.348 C 147.104 203.128,147.623 201.815,147.884 201.429 C 148.145 201.044,148.358 200.295,148.358 199.765 C 148.358 199.234,148.495 198.715,148.662 198.612 C 148.829 198.509,149.319 197.342,149.751 196.018 C 150.183 194.694,150.629 193.372,150.742 193.079 C 151.887 190.117,153.068 186.669,153.230 185.819 C 153.473 184.540,154.537 183.596,156.078 183.291 C 156.713 183.165,157.232 182.920,157.232 182.747 C 157.232 182.573,158.035 182.431,159.018 182.431 C 160.000 182.431,161.377 182.192,162.078 181.899 C 162.779 181.606,163.861 181.366,164.483 181.366 C 165.105 181.366,165.924 181.132,166.303 180.845 C 166.682 180.559,167.761 180.319,168.701 180.313 C 169.641 180.307,170.721 180.136,171.100 179.933 C 171.479 179.730,172.786 179.414,174.005 179.232 C 177.498 178.709,180.302 178.045,180.302 177.741 C 180.302 176.253,183.995 177.947,185.110 179.947 C 185.491 180.630,185.885 181.269,185.985 181.366 C 186.575 181.941,188.820 185.527,188.820 185.895 C 188.820 186.137,188.947 186.335,189.103 186.335 C 189.356 186.335,191.202 188.989,192.762 191.594 C 193.609 193.008,198.227 192.540,200.484 190.811 C 200.750 190.607,201.868 190.404,202.969 190.360 C 204.069 190.315,206.247 189.932,207.808 189.508 C 209.370 189.084,211.701 188.635,212.989 188.512 C 216.680 188.158,217.061 187.382,215.972 182.431 C 215.693 181.162,215.459 178.766,215.452 177.105 C 215.445 175.444,215.299 173.598,215.128 173.002 C 214.575 171.071,216.080 170.045,220.586 169.281 C 223.430 168.799,226.589 168.077,226.987 167.817 C 227.189 167.685,228.386 167.464,229.649 167.327 C 230.911 167.189,232.103 166.956,232.298 166.808 C 232.493 166.660,233.492 166.426,234.516 166.289 C 235.541 166.151,236.380 165.893,236.380 165.716 C 236.380 165.540,237.218 165.389,238.243 165.382 C 239.268 165.375,240.506 165.141,240.994 164.862 C 243.278 163.557,244.480 164.178,247.515 168.234 C 248.318 169.308,249.062 170.266,249.167 170.364 C 249.272 170.461,249.992 171.340,250.766 172.316 C 251.540 173.292,252.261 174.170,252.368 174.268 C 252.475 174.366,253.338 175.484,254.288 176.752 C 255.237 178.021,256.467 179.546,257.021 180.140 C 257.575 180.735,258.468 181.876,259.005 182.677 C 259.543 183.478,260.998 185.387,262.239 186.920 C 263.480 188.453,264.632 190.062,264.799 190.496 C 265.424 192.116,267.647 191.868,268.170 190.119 C 268.296 189.697,269.239 187.436,270.265 185.093 C 271.291 182.751,272.243 180.435,272.381 179.947 C 272.518 179.459,272.887 178.500,273.199 177.817 C 273.512 177.134,274.020 176.016,274.328 175.333 C 274.637 174.650,274.989 174.011,275.111 173.913 C 275.233 173.815,275.445 173.217,275.583 172.582 C 275.720 171.948,275.980 171.429,276.160 171.429 C 276.339 171.429,276.486 171.189,276.486 170.897 C 276.486 170.605,276.965 169.352,277.551 168.112 C 278.137 166.873,278.616 165.714,278.616 165.538 C 278.616 165.362,279.084 164.259,279.657 163.088 C 280.230 161.917,281.183 159.920,281.775 158.651 C 283.023 155.977,283.459 155.636,286.083 155.283 C 287.149 155.140,288.181 154.900,288.376 154.751 C 288.571 154.602,289.650 154.369,290.772 154.233 C 291.894 154.097,292.813 153.838,292.813 153.657 C 292.813 153.476,293.571 153.328,294.499 153.329 C 295.426 153.330,296.903 153.101,297.782 152.819 C 298.660 152.538,300.976 152.028,302.928 151.687 C 304.880 151.346,306.643 150.945,306.846 150.796 C 307.049 150.647,308.321 150.349,309.673 150.133 C 313.512 149.520,313.640 149.658,313.906 154.701 C 314.025 156.971,314.274 159.627,314.459 160.603 C 314.643 161.579,314.888 164.026,315.002 166.040 C 315.116 168.054,315.360 170.101,315.546 170.588 C 315.731 171.076,315.879 172.542,315.875 173.847 C 315.864 176.840,316.880 186.802,317.369 188.502 C 318.035 190.817,316.411 192.292,312.689 192.754 C 308.824 193.233,306.300 193.857,306.300 194.333 C 306.300 194.671,305.482 194.844,303.372 194.955 C 300.440 195.109,297.050 195.778,296.717 196.269 C 296.619 196.412,295.251 196.640,293.677 196.775 L 290.814 197.021 290.305 196.026 C 290.006 195.442,289.796 194.006,289.796 192.547 C 289.796 188.388,288.165 188.870,287.092 193.345 C 286.846 194.370,286.515 195.209,286.357 195.209 C 286.199 195.209,286.069 195.492,286.069 195.839 C 286.069 197.616,283.617 199.211,280.005 199.783 C 276.121 200.397,273.477 200.970,273.292 201.237 C 273.194 201.378,272.110 201.581,270.883 201.690 C 269.656 201.798,268.458 202.041,268.221 202.228 C 267.984 202.416,267.072 202.658,266.193 202.766 C 263.622 203.083,260.393 203.776,259.634 204.176 C 259.247 204.379,257.889 204.687,256.617 204.859 C 255.345 205.032,253.744 205.257,253.061 205.359 C 251.868 205.537,249.516 204.058,249.510 203.126 C 249.509 202.968,249.030 202.329,248.446 201.705 C 247.861 201.081,247.382 200.336,247.382 200.049 C 247.382 199.762,247.263 199.474,247.116 199.408 C 246.970 199.343,246.403 198.691,245.856 197.959 C 243.851 195.275,243.233 196.287,243.993 201.009 C 244.909 206.701,244.707 207.323,241.792 207.801 C 240.963 207.937,240.284 208.194,240.284 208.372 C 240.284 208.550,239.445 208.701,238.421 208.708 C 237.396 208.715,236.158 208.949,235.670 209.228 C 235.182 209.507,234.224 209.740,233.540 209.745 C 232.251 209.755,227.739 210.714,226.783 211.181 C 226.482 211.328,225.244 211.563,224.031 211.704 C 222.819 211.845,221.738 212.104,221.629 212.280 C 221.302 212.808,219.820 212.641,219.298 212.017 C 218.783 211.402,218.154 206.486,217.554 198.403 C 216.863 189.085,216.693 188.680,214.061 190.041 C 213.472 190.345,212.407 190.594,211.695 190.594 C 210.470 190.594,209.090 191.051,206.804 192.213 C 206.251 192.494,205.042 192.724,204.116 192.724 C 202.113 192.724,199.138 193.666,198.861 194.388 C 198.723 194.747,198.225 194.869,197.202 194.794 C 195.285 194.654,195.044 195.683,196.545 197.610 C 197.113 198.339,197.877 199.454,198.244 200.089 C 198.611 200.723,199.036 201.242,199.189 201.242 C 199.342 201.242,199.468 201.470,199.468 201.749 C 199.468 202.028,199.667 202.471,199.911 202.734 C 200.533 203.403,202.662 206.544,202.662 206.792 C 202.662 206.904,203.141 207.601,203.727 208.341 C 204.312 209.080,204.791 209.789,204.791 209.915 C 204.791 210.042,205.464 211.037,206.286 212.125 L 207.781 214.105 206.799 214.949 C 206.201 215.464,205.366 215.794,204.665 215.794 C 204.032 215.794,203.315 215.993,203.073 216.235 C 202.830 216.478,201.560 216.789,200.251 216.926 C 196.933 217.274,193.434 218.003,193.434 218.346 C 193.434 218.504,192.805 218.634,192.037 218.634 C 191.269 218.634,190.191 218.817,189.642 219.040 C 189.092 219.264,187.689 219.570,186.523 219.721 C 185.357 219.871,184.345 220.167,184.275 220.379 C 183.937 221.391,180.969 219.739,180.280 218.155 C 179.873 217.218,179.206 216.162,178.616 215.518 C 178.372 215.251,178.172 214.805,178.172 214.527 C 178.172 214.248,178.031 214.020,177.859 214.020 C 177.686 214.020,177.444 213.740,177.321 213.398 C 177.197 213.057,176.896 212.458,176.651 212.067 C 176.406 211.677,175.810 210.713,175.325 209.924 C 174.841 209.136,174.245 208.178,174.001 207.795 C 173.756 207.412,173.409 206.761,173.230 206.348 C 172.457 204.576,170.943 205.254,170.556 207.546 C 170.416 208.372,170.156 209.137,169.978 209.247 C 169.800 209.357,169.654 209.965,169.654 210.598 C 169.654 211.230,169.507 211.900,169.327 212.085 C 168.851 212.577,167.524 216.523,167.524 217.447 C 167.524 217.881,167.377 218.328,167.197 218.439 C 167.017 218.551,166.763 219.159,166.633 219.791 C 165.856 223.568,165.259 224.045,159.860 225.205 C 157.731 225.662,155.350 226.198,154.570 226.395 C 153.789 226.592,151.912 227.029,150.399 227.367 C 148.886 227.704,147.649 228.113,147.649 228.276 C 147.649 228.654,153.357 228.622,155.457 228.233 C 156.335 228.070,159.210 227.605,161.846 227.198 C 164.481 226.792,167.166 226.282,167.812 226.065 C 168.459 225.848,170.136 225.536,171.539 225.372 C 177.917 224.626,180.109 224.265,180.564 223.887 C 180.833 223.663,182.456 223.448,184.169 223.408 C 185.883 223.368,187.830 223.160,188.496 222.945 C 189.162 222.731,190.626 222.460,191.748 222.344 C 194.572 222.050,194.640 221.118,191.837 221.118 C 190.338 221.118,189.885 220.994,189.885 220.586 C 189.885 220.177,190.338 220.053,191.837 220.053 C 193.335 220.053,193.789 219.930,193.789 219.521 C 193.789 219.092,194.342 218.988,196.639 218.988 C 198.846 218.988,199.536 218.868,199.694 218.456 C 199.837 218.084,200.417 217.924,201.614 217.924 C 202.558 217.924,203.429 217.764,203.549 217.569 C 203.670 217.374,204.643 217.214,205.711 217.214 C 207.110 217.214,207.710 217.065,207.857 216.681 C 207.970 216.389,208.284 216.149,208.556 216.149 C 208.919 216.149,209.051 215.629,209.051 214.197 C 209.051 212.698,208.927 212.245,208.518 212.245 C 208.225 212.245,207.986 212.005,207.986 211.713 C 207.986 211.420,207.746 211.180,207.453 211.180 C 207.161 211.180,206.921 210.941,206.921 210.648 C 206.921 210.355,206.681 210.115,206.389 210.115 C 206.050 210.115,205.856 209.775,205.856 209.180 C 205.856 208.638,205.483 207.899,204.969 207.422 C 204.481 206.970,204.082 206.273,204.082 205.873 C 204.082 205.464,203.849 205.146,203.549 205.146 C 203.216 205.146,203.017 204.810,203.017 204.248 C 203.017 203.754,202.777 203.258,202.484 203.145 C 202.192 203.033,201.952 202.718,201.952 202.446 C 201.952 202.175,201.713 201.952,201.420 201.952 C 201.088 201.952,200.887 201.617,200.887 201.065 C 200.887 200.513,200.686 200.177,200.355 200.177 C 200.062 200.177,199.823 199.938,199.823 199.645 C 199.823 199.352,199.663 199.113,199.468 199.113 C 199.272 199.113,199.113 198.749,199.113 198.304 C 199.113 197.860,198.762 197.196,198.334 196.829 L 197.555 196.162 198.334 195.874 C 198.762 195.716,199.113 195.421,199.113 195.220 C 199.113 195.007,200.048 194.854,201.349 194.854 C 202.579 194.854,203.739 194.699,203.928 194.511 C 204.116 194.322,204.806 194.127,205.460 194.077 C 206.114 194.027,206.727 193.782,206.823 193.533 C 206.941 193.225,207.785 193.079,209.443 193.079 C 211.382 193.079,211.890 192.968,211.890 192.547 C 211.890 192.152,212.304 192.014,213.487 192.014 L 215.084 192.014 215.084 193.434 C 215.084 194.459,215.232 194.854,215.617 194.854 C 216.070 194.854,216.149 195.801,216.149 201.253 C 216.149 206.615,216.235 207.686,216.681 207.857 C 217.083 208.012,217.214 208.661,217.214 210.508 C 217.214 211.903,217.366 212.955,217.569 212.955 C 217.764 212.955,217.924 213.194,217.924 213.487 C 217.924 213.910,218.436 214.020,220.408 214.020 C 222.380 214.020,222.893 213.910,222.893 213.487 C 222.893 213.078,223.347 212.955,224.856 212.955 C 226.274 212.955,226.876 212.807,227.023 212.422 C 227.177 212.021,227.824 211.890,229.645 211.890 C 230.974 211.890,232.115 211.739,232.180 211.555 C 232.245 211.371,233.233 211.183,234.376 211.138 C 235.522 211.092,236.664 210.845,236.924 210.586 C 237.182 210.327,238.033 210.115,238.814 210.115 C 239.602 210.115,240.470 209.879,240.766 209.583 C 241.092 209.256,241.962 209.051,243.019 209.051 C 245.486 209.051,245.909 208.426,246.037 204.591 L 246.140 201.526 247.116 202.432 C 247.653 202.930,248.092 203.582,248.092 203.881 C 248.092 205.435,250.420 206.921,252.854 206.921 C 254.175 206.921,255.191 206.767,255.191 206.566 C 255.191 206.370,256.123 206.211,257.277 206.211 C 258.698 206.211,259.504 206.042,259.805 205.679 C 260.097 205.326,260.892 205.146,262.155 205.146 C 263.551 205.146,264.064 205.013,264.064 204.652 C 264.064 204.280,264.784 204.124,266.964 204.025 C 268.849 203.939,269.916 203.740,270.011 203.455 C 270.097 203.197,270.791 203.017,271.699 203.017 C 272.597 203.017,273.464 202.794,273.774 202.484 C 274.139 202.119,275.038 201.952,276.638 201.952 C 278.475 201.952,278.971 201.839,278.971 201.420 C 278.971 200.997,279.483 200.887,281.455 200.887 C 282.822 200.887,283.940 200.748,283.940 200.577 C 283.940 200.406,284.419 200.170,285.004 200.053 C 285.850 199.884,286.069 199.656,286.069 198.944 C 286.069 198.384,286.269 198.048,286.602 198.048 C 286.957 198.048,287.134 197.693,287.134 196.983 C 287.134 196.273,287.311 195.918,287.666 195.918 C 287.959 195.918,288.199 196.158,288.199 196.451 C 288.199 196.744,288.438 196.983,288.731 196.983 C 289.056 196.983,289.264 197.314,289.264 197.832 C 289.264 198.818,289.843 199.113,291.777 199.113 C 292.777 199.113,293.168 198.963,293.168 198.580 C 293.168 198.188,293.577 198.048,294.721 198.048 C 295.669 198.048,296.447 197.840,296.717 197.516 C 297.030 197.138,297.859 196.983,299.562 196.983 C 301.370 196.983,302.015 196.851,302.169 196.451 C 302.312 196.077,302.895 195.918,304.121 195.918 C 305.347 195.918,305.930 195.759,306.073 195.386 C 306.228 194.983,306.882 194.854,308.773 194.854 C 310.200 194.854,311.269 194.702,311.269 194.499 C 311.269 194.299,312.269 194.144,313.558 194.144 C 315.152 194.144,315.934 193.992,316.131 193.646 C 316.288 193.371,316.815 193.092,317.303 193.024 C 317.925 192.938,318.226 192.646,318.311 192.045 C 318.377 191.574,318.668 190.953,318.958 190.663 C 319.494 190.127,319.338 188.490,318.714 188.105 C 318.544 188.000,318.381 185.922,318.351 183.487 C 318.311 180.327,318.158 178.904,317.814 178.515 C 317.455 178.110,317.320 176.511,317.285 172.241 C 317.249 167.668,317.138 166.472,316.739 166.319 C 316.345 166.168,316.238 165.186,316.238 161.717 C 316.238 158.125,316.139 157.270,315.705 157.103 C 315.277 156.939,315.173 156.136,315.173 152.984 C 315.173 149.740,315.082 149.068,314.641 149.068 C 314.348 149.068,314.108 148.829,314.108 148.536 C 314.108 148.127,313.655 148.004,312.156 148.004 C 310.658 148.004,310.204 148.127,310.204 148.536 M70.186 153.931 C 70.851 154.826,70.824 177.924,70.158 178.477 C 69.471 179.047,36.319 179.066,35.634 178.497 C 34.758 177.770,34.915 154.233,35.799 153.614 C 36.924 152.825,69.588 153.127,70.186 153.931 M90.861 159.539 C 90.861 159.831,90.621 160.071,90.328 160.071 C 89.519 160.071,89.519 221.744,90.328 222.054 C 90.621 222.167,90.861 222.481,90.861 222.753 C 90.861 223.156,91.974 223.248,96.894 223.248 C 100.680 223.248,102.928 223.380,102.928 223.602 C 102.928 223.798,102.567 223.957,102.126 223.957 C 101.666 223.957,100.947 224.412,100.444 225.022 C 99.960 225.608,99.323 226.092,99.028 226.099 C 98.364 226.113,96.894 227.305,96.894 227.830 C 96.894 228.042,96.655 228.217,96.362 228.217 C 96.069 228.217,95.830 228.443,95.830 228.719 C 95.830 228.996,95.350 229.434,94.765 229.693 C 93.953 230.052,93.700 230.397,93.700 231.143 C 93.700 231.892,93.530 232.121,92.972 232.121 C 92.482 232.121,92.122 232.469,91.872 233.185 C 91.668 233.771,91.357 234.250,91.181 234.250 C 90.371 234.250,90.824 240.809,91.659 241.176 C 92.098 241.369,92.509 241.886,92.571 242.325 C 92.659 242.945,92.916 243.123,93.725 243.123 C 94.413 243.123,94.765 243.304,94.765 243.656 C 94.765 244.064,94.311 244.188,92.813 244.188 C 90.880 244.188,90.861 244.199,90.861 245.253 C 90.861 245.977,90.685 246.318,90.312 246.318 C 89.575 246.318,89.678 265.859,90.417 266.105 C 90.661 266.186,90.861 266.571,90.861 266.960 C 90.861 267.349,91.340 268.147,91.925 268.733 C 92.511 269.318,92.990 270.007,92.990 270.264 C 92.990 270.808,93.763 271.162,94.948 271.162 C 95.595 271.162,95.808 271.382,95.895 272.138 C 96.024 273.266,100.976 273.739,100.976 272.624 C 100.976 271.984,98.765 270.807,97.562 270.807 C 96.958 270.807,96.419 270.499,96.057 269.947 C 95.747 269.474,95.210 268.994,94.863 268.881 C 94.146 268.646,92.585 266.452,92.201 265.136 C 91.828 263.862,91.546 249.562,91.864 248.092 L 92.133 246.850 98.684 246.850 C 107.276 246.850,107.475 246.647,101.090 244.400 C 94.761 242.173,92.280 240.441,92.280 238.248 C 92.280 236.928,93.787 233.419,94.835 232.298 C 97.580 229.363,98.414 228.587,99.039 228.389 C 99.432 228.265,100.006 227.775,100.316 227.302 C 100.627 226.829,101.143 226.442,101.464 226.442 C 101.786 226.442,102.444 225.963,102.928 225.377 C 103.451 224.744,104.147 224.312,104.643 224.312 C 105.944 224.312,109.233 222.188,109.416 221.230 C 109.611 220.211,108.548 220.152,103.789 220.919 C 99.306 221.641,92.751 221.863,92.290 221.307 C 91.880 220.813,91.708 162.082,92.113 161.047 C 92.518 160.014,117.635 160.099,118.190 161.135 C 118.451 161.623,118.557 170.345,118.529 189.086 L 118.489 216.327 119.591 216.438 C 120.699 216.551,123.159 215.352,123.159 214.700 C 123.159 214.521,123.586 214.374,124.107 214.374 C 125.297 214.374,127.751 213.268,127.764 212.727 C 127.790 211.572,124.490 211.854,123.331 213.105 C 122.847 213.627,122.095 214.020,121.579 214.020 L 120.674 214.020 120.663 187.311 C 120.651 161.716,120.623 160.570,119.985 159.805 L 119.318 159.006 105.090 159.006 C 92.678 159.006,90.861 159.074,90.861 159.539 M349.601 185.626 C 349.601 185.821,349.122 185.980,348.536 185.980 C 347.595 185.980,347.471 186.101,347.471 187.022 C 347.471 187.894,347.313 188.081,346.495 188.175 C 345.728 188.263,345.495 188.497,345.407 189.264 C 345.269 190.462,346.137 190.574,347.471 189.530 C 348.335 188.854,349.601 188.576,349.601 189.061 C 349.601 189.549,347.282 192.706,346.917 192.715 C 346.709 192.720,346.186 193.203,345.753 193.789 C 345.320 194.374,344.742 194.854,344.469 194.854 C 344.197 194.854,343.659 195.253,343.275 195.741 C 342.892 196.229,342.413 196.628,342.212 196.628 C 342.011 196.628,341.394 197.009,340.841 197.475 C 340.287 197.941,339.250 198.566,338.535 198.865 C 337.820 199.163,337.057 199.740,336.840 200.147 C 336.608 200.580,336.092 200.887,335.596 200.887 C 335.130 200.887,334.274 201.287,333.694 201.775 C 333.114 202.263,332.343 202.663,331.981 202.663 C 331.618 202.664,330.843 202.981,330.257 203.368 C 328.295 204.664,328.132 204.748,327.192 204.944 C 326.678 205.052,325.879 205.538,325.418 206.024 C 324.829 206.644,324.196 206.911,323.299 206.915 C 322.433 206.919,321.711 207.207,321.063 207.808 C 320.536 208.296,319.859 208.696,319.557 208.696 C 319.105 208.696,319.046 209.023,319.223 210.559 C 320.411 220.882,320.301 221.223,315.609 221.823 C 312.627 222.204,309.777 222.868,309.335 223.285 C 309.149 223.460,308.249 223.602,307.334 223.602 C 306.420 223.602,304.895 223.829,303.945 224.106 C 301.958 224.686,299.369 225.295,297.072 225.722 C 296.193 225.886,295.149 226.125,294.751 226.253 C 293.406 226.685,292.854 225.516,292.739 221.994 L 292.635 218.811 291.287 218.853 C 287.984 218.956,286.222 221.118,289.441 221.118 L 291.393 221.118 291.393 223.957 C 291.393 226.210,291.524 226.928,292.027 227.431 C 292.867 228.271,295.823 228.482,296.243 227.732 C 296.431 227.396,297.199 227.156,298.315 227.086 C 299.500 227.011,300.059 226.827,300.000 226.531 C 299.935 226.207,300.633 226.087,302.573 226.087 C 304.703 226.087,305.235 225.980,305.235 225.555 C 305.235 225.142,305.704 225.022,307.321 225.022 C 308.743 225.022,309.548 224.853,309.849 224.490 C 310.142 224.137,310.936 223.957,312.200 223.957 C 313.249 223.957,314.108 223.798,314.108 223.602 C 314.108 223.407,315.032 223.248,316.170 223.248 C 317.433 223.248,318.498 223.046,318.921 222.726 C 319.300 222.440,319.969 222.200,320.408 222.194 C 321.201 222.183,321.207 222.147,321.207 216.681 C 321.207 212.028,321.125 211.180,320.674 211.180 C 320.382 211.180,320.142 210.965,320.142 210.703 C 320.142 209.872,321.396 209.051,322.664 209.051 C 323.826 209.051,325.409 207.884,325.193 207.187 C 325.148 207.041,325.630 206.921,326.264 206.921 L 327.418 206.921 327.324 228.571 L 327.230 250.222 326.348 250.222 C 325.800 250.222,325.466 250.424,325.466 250.754 C 325.466 251.226,313.852 251.287,223.070 251.287 L 120.674 251.287 120.674 250.222 L 120.674 249.157 135.060 249.157 C 147.520 249.157,149.473 249.086,149.650 248.625 C 149.818 248.187,150.729 248.092,154.785 248.092 C 158.932 248.092,159.716 248.008,159.716 247.560 C 159.716 247.110,160.561 247.028,165.188 247.028 C 168.197 247.028,170.713 246.881,170.778 246.702 C 170.843 246.523,171.695 246.337,172.671 246.288 C 174.604 246.193,175.688 245.801,175.688 245.197 C 175.688 244.520,159.759 245.401,158.651 246.140 C 157.985 246.584,150.448 246.904,133.807 247.195 C 117.780 247.475,117.712 247.492,118.393 251.122 C 118.709 252.804,108.696 252.665,224.312 252.593 L 328.483 252.529 328.574 230.646 L 328.666 208.763 329.699 208.403 C 330.268 208.205,331.042 207.734,331.419 207.356 C 331.825 206.950,332.810 206.591,333.832 206.476 C 335.100 206.333,335.768 206.036,336.351 205.359 C 336.936 204.679,337.485 204.437,338.441 204.437 C 339.294 204.437,340.277 204.073,341.315 203.372 C 342.183 202.786,343.342 202.307,343.890 202.307 C 344.439 202.307,345.429 201.943,346.091 201.497 C 346.752 201.052,347.967 200.488,348.789 200.245 C 349.612 200.001,350.505 199.487,350.774 199.103 C 351.161 198.551,351.742 198.385,353.538 198.315 L 355.812 198.225 355.902 231.027 C 355.982 259.740,355.926 263.930,355.459 264.643 C 355.165 265.092,354.925 265.702,354.925 265.999 C 354.925 266.997,350.836 270.687,349.487 270.906 C 348.154 271.122,346.761 272.110,346.761 272.838 C 346.761 273.846,350.380 273.389,351.622 272.226 C 352.246 271.641,353.085 271.162,353.486 271.162 C 354.059 271.162,354.215 270.935,354.215 270.098 C 354.215 269.151,354.333 269.033,355.280 269.033 C 356.166 269.033,356.344 268.891,356.344 268.183 C 356.344 267.716,356.584 267.242,356.877 267.130 C 357.254 266.985,357.409 266.397,357.409 265.114 C 357.409 263.992,357.608 263.104,357.932 262.780 C 358.656 262.056,358.643 256.740,357.916 256.333 C 357.490 256.095,357.399 251.495,357.322 226.074 L 357.232 196.096 354.836 195.991 C 352.866 195.905,352.440 195.984,352.440 196.435 C 352.440 196.785,352.115 196.983,351.542 196.983 C 351.048 196.983,350.551 197.223,350.439 197.516 C 350.312 197.845,349.772 198.048,349.019 198.048 C 348.266 198.048,347.726 198.250,347.600 198.580 C 347.487 198.873,347.173 199.113,346.901 199.113 C 346.629 199.113,346.406 199.352,346.406 199.645 C 346.406 200.049,345.967 200.177,344.584 200.177 C 343.095 200.177,342.610 200.340,341.939 201.065 C 341.271 201.785,340.780 201.952,339.325 201.952 C 337.969 201.952,337.533 202.082,337.533 202.484 C 337.533 202.777,337.294 203.017,337.001 203.017 C 336.708 203.017,336.469 203.256,336.469 203.549 C 336.469 203.944,336.054 204.082,334.871 204.082 C 333.688 204.082,333.274 203.944,333.274 203.549 C 333.274 203.170,333.660 203.017,334.615 203.017 C 335.906 203.017,337.178 202.134,337.178 201.238 C 337.178 201.045,337.897 200.887,338.776 200.887 C 340.243 200.887,340.373 200.815,340.373 200.000 C 340.373 199.313,340.555 199.113,341.181 199.113 C 341.973 199.113,343.212 198.028,343.212 197.334 C 343.212 197.141,343.691 196.983,344.277 196.983 C 344.862 196.983,345.342 196.825,345.342 196.632 C 345.342 196.185,346.472 194.854,346.852 194.854 C 347.253 194.854,349.246 192.775,349.246 192.357 C 349.246 192.168,349.485 192.014,349.778 192.014 C 350.071 192.014,350.311 191.775,350.311 191.482 C 350.311 191.189,350.550 190.949,350.843 190.949 C 351.198 190.949,351.375 190.594,351.375 189.885 C 351.375 189.175,351.553 188.820,351.908 188.820 C 352.855 188.820,352.590 186.515,351.565 185.844 C 350.581 185.199,349.601 185.090,349.601 185.626 M343.584 190.222 C 343.300 190.401,342.937 190.466,342.777 190.367 C 342.616 190.268,342.508 190.318,342.535 190.479 C 342.755 191.744,342.468 192.014,340.905 192.014 C 339.722 192.014,339.308 192.152,339.308 192.547 C 339.308 192.839,339.068 193.079,338.776 193.079 C 338.483 193.079,338.283 193.275,338.332 193.514 C 338.381 193.754,338.035 194.008,337.564 194.079 C 337.094 194.150,336.483 194.433,336.208 194.708 C 335.933 194.983,335.400 195.209,335.023 195.209 C 334.647 195.209,334.339 195.368,334.339 195.563 C 334.339 195.759,334.031 195.918,333.654 195.918 C 333.278 195.918,332.721 196.168,332.416 196.473 C 332.111 196.777,331.541 197.051,331.148 197.080 C 330.756 197.110,330.435 197.340,330.435 197.591 C 330.435 197.883,329.949 198.048,329.087 198.048 C 328.027 198.048,327.554 198.272,326.869 199.098 C 326.108 200.014,325.760 200.149,324.114 200.162 C 322.951 200.172,322.314 200.313,322.449 200.532 C 322.570 200.728,322.427 200.887,322.133 200.887 C 321.838 200.887,321.466 201.122,321.305 201.409 C 321.075 201.819,319.993 201.952,316.230 202.030 C 312.634 202.105,311.468 202.240,311.535 202.573 C 311.599 202.894,310.945 203.017,309.177 203.017 C 307.330 203.017,306.681 203.147,306.526 203.549 C 306.364 203.974,305.599 204.082,302.762 204.082 C 299.834 204.082,299.201 204.176,299.201 204.614 C 299.201 205.048,298.609 205.146,295.996 205.146 C 293.474 205.146,292.747 205.260,292.586 205.679 C 292.470 205.982,291.940 206.211,291.355 206.211 L 290.328 206.211 290.328 209.051 C 290.328 210.612,290.209 211.898,290.062 211.908 C 287.642 212.070,286.594 212.266,286.491 212.577 C 286.422 212.785,286.139 212.955,285.862 212.955 C 285.586 212.955,285.359 213.293,285.359 213.706 C 285.359 214.409,285.508 214.448,287.655 214.311 C 290.918 214.103,291.900 213.169,291.577 210.579 C 291.315 208.479,291.770 207.276,292.825 207.276 C 293.209 207.276,293.523 207.143,293.523 206.981 C 293.523 206.819,295.240 206.508,297.338 206.290 C 304.478 205.549,306.818 205.189,306.944 204.812 C 307.017 204.591,308.198 204.437,309.814 204.437 C 311.324 204.437,313.380 204.193,314.383 203.895 C 315.822 203.468,316.528 203.434,317.730 203.737 C 319.316 204.136,321.917 203.465,321.917 202.657 C 321.917 202.465,322.385 202.307,322.957 202.307 C 323.529 202.307,325.086 201.815,326.417 201.213 C 327.748 200.612,329.357 199.886,329.991 199.600 C 330.626 199.314,331.145 198.927,331.145 198.741 C 331.145 198.555,331.588 198.403,332.130 198.403 C 333.138 198.403,334.646 197.573,335.155 196.738 C 335.311 196.483,335.872 196.273,336.401 196.273 C 336.930 196.273,337.765 195.900,338.257 195.444 C 338.749 194.988,339.559 194.513,340.056 194.388 C 340.553 194.263,341.395 193.758,341.927 193.265 C 342.459 192.772,343.101 192.369,343.354 192.369 C 343.606 192.369,344.176 192.054,344.620 191.670 C 345.897 190.562,345.009 189.320,343.584 190.222 M330.435 205.679 C 330.435 205.972,330.121 206.211,329.736 206.211 C 329.261 206.211,329.103 206.041,329.242 205.679 C 329.354 205.386,329.668 205.146,329.940 205.146 C 330.212 205.146,330.435 205.386,330.435 205.679 M278.389 207.453 C 278.235 207.855,277.586 207.986,275.738 207.986 C 273.800 207.986,273.292 208.096,273.292 208.518 C 273.292 208.959,272.623 209.051,269.405 209.051 C 266.383 209.051,265.455 209.165,265.231 209.564 C 265.014 209.953,264.066 210.093,261.331 210.140 C 258.732 210.185,257.668 210.332,257.540 210.666 C 257.442 210.920,256.928 211.180,256.397 211.243 C 255.356 211.367,254.909 212.416,255.758 212.742 C 256.068 212.860,256.256 213.458,256.256 214.325 C 256.256 215.503,256.388 215.750,257.118 215.934 C 257.656 216.069,258.024 216.450,258.094 216.948 C 258.214 217.791,265.129 218.450,265.129 217.619 C 265.129 217.438,266.434 217.230,268.029 217.157 C 269.914 217.072,270.981 216.872,271.075 216.587 C 271.291 215.939,273.292 216.024,273.292 216.681 C 273.292 217.076,272.878 217.214,271.695 217.214 C 270.653 217.214,270.098 217.368,270.098 217.657 C 270.098 217.968,269.485 218.083,268.057 218.042 C 266.744 218.004,265.821 218.158,265.468 218.474 C 265.167 218.745,264.389 219.006,263.741 219.056 C 263.092 219.105,262.483 219.350,262.387 219.599 C 262.265 219.918,261.325 220.053,259.234 220.053 C 256.823 220.053,256.256 220.155,256.256 220.586 C 256.256 220.919,255.919 221.118,255.357 221.118 C 254.863 221.118,254.367 221.358,254.254 221.650 C 253.855 222.691,248.092 222.395,248.092 221.333 C 248.092 220.866,247.853 220.392,247.560 220.280 C 247.144 220.120,247.028 219.412,247.028 217.048 C 247.028 214.593,246.927 214.020,246.495 214.020 C 246.202 214.020,245.963 213.780,245.963 213.487 C 245.963 213.061,245.429 212.955,243.290 212.955 C 241.241 212.955,240.569 213.079,240.412 213.487 C 240.247 213.917,239.431 214.020,236.164 214.020 C 232.807 214.020,232.121 214.110,232.121 214.552 C 232.121 214.983,231.549 215.084,229.104 215.084 C 226.659 215.084,226.087 215.185,226.087 215.617 C 226.087 216.048,225.515 216.149,223.070 216.149 C 220.625 216.149,220.053 216.250,220.053 216.681 C 220.053 217.036,219.698 217.214,218.988 217.214 L 217.924 217.214 217.924 221.803 C 217.924 225.408,218.038 226.505,218.456 226.924 C 218.749 227.216,218.988 227.627,218.988 227.836 C 218.988 228.045,218.749 228.217,218.456 228.217 C 218.163 228.217,217.924 227.977,217.924 227.684 C 217.924 227.391,217.764 227.152,217.569 227.152 C 217.374 227.152,217.214 226.785,217.214 226.337 C 217.214 225.866,216.770 225.153,216.164 224.651 C 215.587 224.172,215.108 223.421,215.099 222.981 C 215.091 222.515,214.863 222.183,214.552 222.183 C 214.197 222.183,214.020 221.828,214.020 221.118 C 214.020 220.408,213.842 220.053,213.487 220.053 C 213.194 220.053,212.955 219.814,212.955 219.521 C 212.955 219.228,212.732 218.988,212.460 218.988 C 212.188 218.988,211.874 218.749,211.762 218.456 C 211.615 218.073,211.015 217.924,209.619 217.924 C 208.370 217.924,207.492 218.113,207.149 218.456 C 206.754 218.851,205.786 218.988,203.397 218.988 C 200.811 218.988,200.177 219.090,200.177 219.506 C 200.177 219.910,199.533 220.047,197.253 220.128 C 194.799 220.214,194.310 220.331,194.210 220.852 C 194.067 221.603,199.045 221.768,200.775 221.069 C 201.663 220.711,203.064 220.506,209.051 219.859 C 210.051 219.751,210.856 219.855,211.206 220.136 C 211.821 220.631,214.961 225.321,215.666 226.797 C 215.805 227.090,216.027 227.409,216.157 227.507 C 216.288 227.604,216.619 228.149,216.893 228.716 C 217.608 230.197,218.370 230.580,219.539 230.047 C 220.602 229.563,220.639 227.935,219.720 222.073 C 219.158 218.494,219.708 217.999,224.933 217.371 C 225.958 217.248,226.797 217.003,226.797 216.826 C 226.797 216.649,227.923 216.504,229.300 216.504 C 230.677 216.504,232.873 216.274,234.180 215.994 C 235.488 215.713,237.476 215.383,238.598 215.259 C 239.720 215.135,240.639 214.910,240.639 214.760 C 240.639 214.278,243.983 214.407,244.777 214.919 C 245.466 215.363,245.570 215.848,245.799 219.680 C 246.105 224.811,246.208 224.960,249.093 224.410 C 252.173 223.823,254.268 223.242,254.641 222.872 C 254.826 222.688,255.625 222.534,256.415 222.529 C 257.206 222.525,258.492 222.352,259.272 222.145 C 260.053 221.938,261.126 221.685,261.657 221.583 C 262.187 221.480,262.806 221.174,263.031 220.902 C 263.275 220.608,264.117 220.408,265.109 220.408 C 266.913 220.408,269.933 219.540,270.835 218.762 C 271.165 218.478,272.219 218.279,273.397 218.279 C 275.529 218.279,277.906 217.402,277.906 216.616 C 277.906 216.300,277.394 216.149,276.320 216.149 C 275.056 216.149,274.775 216.041,274.938 215.617 C 275.082 215.243,275.664 215.084,276.890 215.084 C 278.116 215.084,278.699 214.925,278.842 214.552 C 278.955 214.259,279.269 214.020,279.541 214.020 C 279.813 214.020,280.035 213.780,280.035 213.487 C 280.035 213.194,280.275 212.955,280.568 212.955 C 280.923 212.955,281.100 212.600,281.100 211.890 C 281.100 211.180,281.278 210.825,281.633 210.825 C 282.017 210.825,282.165 210.431,282.165 209.406 C 282.165 208.429,282.011 207.986,281.671 207.986 C 281.399 207.986,281.084 207.746,280.972 207.453 C 280.852 207.141,280.319 206.921,279.681 206.921 C 279.042 206.921,278.509 207.141,278.389 207.453 M172.848 208.922 C 172.848 209.395,173.088 209.875,173.381 209.987 C 173.673 210.099,173.913 210.573,173.913 211.041 C 173.913 211.559,174.121 211.890,174.445 211.890 C 174.738 211.890,174.978 212.130,174.978 212.422 C 174.978 212.715,175.217 212.955,175.510 212.955 C 175.865 212.955,176.043 213.310,176.043 214.020 C 176.043 214.729,176.220 215.084,176.575 215.084 C 176.868 215.084,177.107 215.324,177.107 215.617 C 177.107 215.909,177.267 216.149,177.462 216.149 C 177.657 216.149,177.817 216.548,177.817 217.036 C 177.817 217.588,178.018 217.924,178.350 217.924 C 178.806 217.924,179.079 218.808,178.924 219.787 C 178.901 219.933,179.122 220.053,179.414 220.053 C 179.707 220.053,179.947 220.293,179.947 220.586 C 179.947 220.878,180.169 221.118,180.441 221.118 C 180.713 221.118,181.028 221.358,181.140 221.650 C 181.302 222.073,181.026 222.183,179.796 222.183 C 178.748 222.183,178.182 222.355,178.044 222.715 C 177.896 223.100,177.294 223.248,175.876 223.248 C 174.796 223.248,173.913 223.407,173.913 223.602 C 173.913 223.815,172.493 223.957,170.364 223.957 L 166.815 223.957 166.815 223.070 C 166.815 222.518,167.016 222.183,167.347 222.183 C 167.697 222.183,167.879 221.832,167.879 221.156 C 167.879 220.591,168.088 220.049,168.343 219.951 C 168.618 219.846,168.844 219.071,168.897 218.052 C 168.951 217.000,169.184 216.220,169.497 216.045 C 169.804 215.873,170.009 215.214,170.009 214.395 C 170.009 213.510,170.196 212.959,170.541 212.826 C 170.875 212.698,171.074 212.155,171.074 211.369 C 171.074 210.679,171.233 210.115,171.429 210.115 C 171.624 210.115,171.783 209.561,171.783 208.884 C 171.783 207.936,171.906 207.700,172.316 207.857 C 172.609 207.970,172.848 208.449,172.848 208.922 M279.951 210.470 C 280.107 211.967,278.404 213.518,276.354 213.748 C 275.402 213.855,274.524 214.098,274.402 214.288 C 274.279 214.479,273.301 214.733,272.227 214.854 C 268.662 215.254,265.357 215.998,265.212 216.431 C 264.824 217.596,260.073 216.941,258.838 215.552 C 257.369 213.902,257.298 212.694,258.651 212.405 C 259.188 212.290,259.994 212.047,260.443 211.865 C 260.891 211.684,262.089 211.528,263.105 211.520 C 264.120 211.511,265.670 211.346,266.548 211.153 C 267.427 210.960,269.343 210.654,270.807 210.472 C 272.272 210.291,273.949 209.987,274.534 209.797 C 276.738 209.082,279.846 209.468,279.951 210.470 M141.970 213.440 C 141.482 213.704,140.364 214.337,139.485 214.846 C 138.607 215.355,137.329 216.020,136.646 216.324 C 135.131 216.997,135.196 216.958,131.883 219.245 C 124.401 224.413,122.173 228.471,125.232 231.364 C 129.231 235.146,135.654 236.387,136.395 233.519 C 136.568 232.848,136.839 232.138,136.996 231.943 C 137.153 231.748,137.610 230.550,138.011 229.281 C 138.412 228.012,139.242 225.617,139.856 223.957 C 140.471 222.298,141.106 220.503,141.268 219.968 C 141.430 219.433,141.988 217.933,142.508 216.634 C 143.640 213.804,143.445 212.642,141.970 213.440 M280.390 214.528 C 280.390 214.815,279.977 215.086,279.442 215.149 C 278.015 215.318,278.021 216.072,279.450 216.340 C 281.416 216.709,285.732 215.265,285.206 214.414 C 284.822 213.791,280.390 213.896,280.390 214.528 M283.230 221.202 C 280.819 222.264,280.091 222.504,278.616 222.722 C 276.660 223.010,273.647 224.025,273.647 224.396 C 273.647 224.545,273.151 224.667,272.545 224.667 C 270.961 224.667,267.253 225.686,266.653 226.286 C 266.355 226.585,265.453 226.797,264.482 226.797 C 262.702 226.797,259.385 227.879,259.168 228.531 C 259.090 228.763,258.154 228.926,256.895 228.926 C 254.516 228.926,251.287 229.903,251.287 230.623 C 251.287 230.962,250.951 231.025,250.047 230.855 C 247.460 230.370,246.908 230.811,247.173 233.150 C 247.498 236.029,247.046 236.451,242.768 237.265 C 240.914 237.617,238.965 238.121,238.438 238.385 C 237.911 238.649,236.884 238.864,236.156 238.864 C 235.429 238.864,234.343 239.020,233.743 239.210 C 233.144 239.400,231.894 239.649,230.967 239.764 C 227.959 240.136,228.763 240.994,232.121 240.994 C 233.777 240.994,234.960 240.846,234.960 240.639 C 234.960 240.444,235.764 240.284,236.746 240.284 C 238.006 240.284,238.592 240.127,238.736 239.752 C 238.887 239.357,239.515 239.219,241.166 239.219 C 242.711 239.219,243.526 239.056,243.833 238.687 C 244.126 238.334,244.920 238.154,246.184 238.154 C 247.304 238.154,248.092 237.997,248.092 237.774 C 248.092 237.565,248.343 237.144,248.648 236.838 C 248.997 236.489,249.184 235.738,249.148 234.822 C 249.049 232.283,249.101 232.121,250.006 232.121 C 250.474 232.121,250.948 231.881,251.060 231.588 C 251.218 231.176,251.908 231.056,254.115 231.056 C 256.412 231.056,256.965 230.953,256.965 230.524 C 256.965 230.169,257.320 229.991,258.030 229.991 C 258.740 229.991,259.095 229.814,259.095 229.459 C 259.095 229.036,259.608 228.926,261.579 228.926 C 262.999 228.926,264.064 228.774,264.064 228.571 C 264.064 228.376,264.611 228.217,265.281 228.217 C 265.950 228.217,266.729 227.985,267.012 227.702 C 267.325 227.389,268.413 227.146,269.788 227.081 C 271.365 227.007,272.023 226.840,271.961 226.531 C 271.906 226.257,272.267 226.087,272.899 226.087 C 273.484 226.087,274.014 225.858,274.130 225.555 C 274.282 225.158,274.915 225.022,276.615 225.022 C 278.314 225.022,278.947 224.887,279.099 224.490 C 279.226 224.158,279.768 223.957,280.536 223.957 C 281.214 223.957,281.867 223.798,281.988 223.602 C 282.108 223.407,282.905 223.248,283.758 223.248 C 284.663 223.248,285.530 223.026,285.841 222.715 C 286.134 222.422,286.545 222.183,286.754 222.183 C 286.963 222.183,287.134 221.863,287.134 221.473 C 287.134 220.652,284.841 220.492,283.230 221.202 M187.045 221.650 C 187.045 222.036,186.649 222.183,185.612 222.183 C 184.382 222.183,184.243 222.109,184.636 221.664 C 185.254 220.962,187.045 220.952,187.045 221.650 M144.903 229.181 C 145.442 229.263,146.241 229.260,146.677 229.176 C 147.114 229.092,146.673 229.025,145.697 229.028 C 144.720 229.031,144.363 229.099,144.903 229.181 M224.490 241.149 C 223.709 241.410,222.278 241.724,221.310 241.845 C 220.342 241.966,219.391 242.224,219.198 242.417 C 219.005 242.610,218.330 242.768,217.698 242.768 C 217.067 242.768,216.101 242.954,215.551 243.180 C 215.002 243.406,213.673 243.711,212.600 243.859 C 209.986 244.217,207.238 244.850,206.482 245.267 C 206.143 245.455,205.185 245.615,204.353 245.623 C 203.520 245.632,202.201 245.869,201.420 246.150 C 198.561 247.180,197.363 246.685,195.893 243.864 C 194.660 241.498,194.118 241.199,192.033 241.733 C 189.565 242.366,189.651 243.123,192.192 243.123 C 193.690 243.123,194.144 243.247,194.144 243.656 C 194.144 243.949,194.303 244.188,194.499 244.188 C 194.694 244.188,194.854 244.552,194.854 244.997 C 194.854 245.789,195.939 247.028,196.632 247.028 C 196.825 247.028,196.983 247.267,196.983 247.560 C 196.983 247.989,197.536 248.092,199.834 248.092 C 202.040 248.092,202.730 247.972,202.889 247.560 C 203.035 247.178,203.633 247.028,205.007 247.028 C 206.060 247.028,206.921 246.868,206.921 246.673 C 206.921 246.477,207.700 246.318,208.652 246.318 C 209.758 246.318,210.543 246.125,210.825 245.785 C 211.145 245.400,211.992 245.253,213.897 245.253 C 215.907 245.253,216.574 245.127,216.731 244.720 C 216.869 244.359,217.436 244.188,218.494 244.188 C 219.643 244.188,220.053 244.048,220.053 243.656 C 220.053 243.195,223.767 242.804,225.476 243.085 C 225.628 243.110,225.844 242.889,225.957 242.594 C 226.092 242.244,226.640 242.059,227.545 242.059 C 228.690 242.059,228.926 241.937,228.926 241.349 C 228.926 240.481,226.771 240.384,224.490 241.149 M182.527 243.001 C 182.287 243.098,180.771 243.365,179.159 243.594 C 176.851 243.922,176.202 244.143,176.109 244.632 C 175.942 245.507,186.582 245.594,186.917 244.720 C 187.030 244.425,187.558 244.188,188.105 244.188 C 189.097 244.188,190.077 243.434,189.645 243.002 C 189.377 242.734,183.188 242.734,182.527 243.001 M102.026 273.316 C 101.519 274.136,103.779 274.182,148.832 274.267 C 174.437 274.315,195.506 274.355,195.652 274.356 C 195.799 274.356,195.918 275.216,195.918 276.265 C 195.918 277.529,196.098 278.323,196.451 278.616 C 196.883 278.974,196.983 280.113,196.983 284.655 C 196.983 289.303,196.893 290.287,196.451 290.457 C 196.145 290.574,195.918 291.104,195.918 291.699 C 195.918 292.294,196.145 292.824,196.451 292.941 C 197.130 293.202,197.197 296.204,196.529 296.460 C 195.856 296.719,195.787 298.819,196.444 299.071 C 197.136 299.336,197.140 300.130,196.451 300.395 C 196.158 300.507,195.918 301.003,195.918 301.497 L 195.918 302.396 186.513 302.396 C 178.389 302.396,177.107 302.468,177.107 302.928 C 177.107 303.324,176.690 303.461,175.481 303.461 C 174.337 303.461,173.898 303.592,174.001 303.904 C 174.246 304.643,179.657 304.974,183.851 304.506 C 185.901 304.277,189.654 303.891,192.192 303.648 C 194.729 303.405,197.153 303.088,197.578 302.944 L 198.351 302.681 198.466 288.963 C 198.529 281.417,198.523 274.725,198.453 274.091 L 198.325 272.937 150.293 272.937 C 116.656 272.937,102.190 273.050,102.026 273.316 M249.039 273.174 C 248.909 273.304,248.802 279.930,248.802 287.898 L 248.802 302.386 250.043 302.905 C 250.725 303.190,252.762 303.517,254.568 303.631 C 256.375 303.745,258.891 303.986,260.160 304.165 C 266.334 305.037,273.496 304.968,273.191 304.038 C 273.119 303.818,272.633 303.587,272.111 303.526 C 271.576 303.462,271.162 303.191,271.162 302.905 C 271.162 302.475,269.640 302.396,261.402 302.396 C 253.133 302.396,251.642 302.317,251.642 301.883 C 251.642 301.602,251.310 301.139,250.906 300.856 C 250.445 300.533,250.312 300.252,250.551 300.105 C 251.073 299.782,251.031 297.231,250.488 296.311 C 250.133 295.710,250.133 295.527,250.488 295.399 C 251.015 295.208,251.098 292.458,250.577 292.458 C 250.372 292.458,250.222 291.334,250.222 289.796 C 250.222 288.174,250.367 287.134,250.594 287.134 C 250.833 287.134,250.944 285.922,250.904 283.769 C 250.870 281.918,250.702 280.490,250.532 280.596 C 250.361 280.701,250.222 279.979,250.222 278.992 C 250.222 278.004,250.382 277.196,250.577 277.196 C 250.772 277.196,250.934 276.837,250.937 276.398 C 250.951 273.939,245.867 274.171,297.903 274.246 C 342.394 274.310,345.753 274.245,345.189 273.332 C 344.919 272.895,249.474 272.738,249.039 273.174 M160.781 304.445 C 160.488 304.548,160.169 304.752,160.071 304.898 C 159.973 305.045,159.366 305.248,158.721 305.350 C 158.077 305.451,157.352 305.698,157.111 305.897 C 156.871 306.097,155.211 306.290,153.424 306.327 C 151.047 306.375,150.123 306.523,149.987 306.879 C 149.884 307.146,149.396 307.365,148.902 307.365 C 148.340 307.365,148.004 307.564,148.004 307.897 C 148.004 308.329,147.432 308.429,144.987 308.429 C 142.542 308.429,141.970 308.530,141.970 308.962 C 141.970 309.255,141.744 309.494,141.467 309.494 C 141.190 309.494,140.911 309.645,140.846 309.830 C 140.781 310.014,139.900 310.202,138.889 310.247 C 137.413 310.313,137.016 310.463,136.872 311.012 C 136.774 311.388,136.523 311.590,136.315 311.461 C 136.107 311.332,135.936 311.476,135.936 311.780 C 135.936 312.158,135.599 312.334,134.871 312.334 C 133.925 312.334,133.807 312.452,133.807 313.398 C 133.807 314.292,133.667 314.463,132.935 314.463 C 132.221 314.463,132.022 314.686,131.832 315.702 C 131.704 316.384,131.467 316.860,131.305 316.759 C 131.143 316.659,131.034 316.900,131.064 317.295 C 131.094 317.690,131.226 318.012,131.357 318.012 C 131.489 318.012,131.704 318.731,131.836 319.610 C 132.044 321.000,132.187 321.207,132.941 321.207 C 133.617 321.207,133.807 321.392,133.807 322.056 C 133.807 322.990,134.390 323.336,135.965 323.336 C 136.535 323.336,137.001 323.517,137.001 323.738 C 137.001 324.650,138.534 325.466,140.250 325.466 C 141.196 325.466,141.970 325.626,141.970 325.821 C 141.970 326.016,142.352 326.176,142.819 326.176 C 143.286 326.176,143.760 326.415,143.873 326.708 C 144.027 327.110,144.677 327.240,146.529 327.240 C 148.276 327.240,149.109 327.394,149.423 327.773 C 149.666 328.066,150.325 328.305,150.886 328.305 C 151.558 328.305,151.908 328.488,151.908 328.838 C 151.908 329.273,152.519 329.370,155.280 329.370 C 159.124 329.370,159.689 328.881,157.162 327.741 C 156.013 327.223,154.957 327.085,152.548 327.136 C 150.237 327.184,149.423 327.085,149.423 326.754 C 149.423 326.005,147.027 325.111,145.018 325.111 C 143.734 325.111,142.973 324.932,142.663 324.558 C 142.150 323.941,140.065 322.989,139.176 322.967 C 138.858 322.959,138.045 322.480,137.369 321.902 C 136.693 321.324,135.895 320.852,135.594 320.852 C 135.293 320.852,134.676 320.151,134.222 319.295 L 133.396 317.738 134.141 316.278 C 134.551 315.475,135.020 314.818,135.185 314.818 C 135.349 314.818,136.087 314.339,136.823 313.753 C 137.560 313.168,138.421 312.684,138.736 312.677 C 139.050 312.671,140.106 312.274,141.083 311.793 C 142.059 311.313,143.120 310.919,143.441 310.917 C 144.406 310.912,148.713 309.488,148.713 309.174 C 148.713 309.014,150.111 308.797,151.819 308.692 C 154.730 308.512,157.273 307.804,157.744 307.042 C 157.858 306.858,159.665 306.721,161.761 306.736 C 166.519 306.771,171.074 305.826,171.074 304.806 C 171.074 304.159,162.455 303.857,160.781 304.445 M276.368 304.821 C 276.623 305.797,281.092 306.744,285.247 306.702 C 287.604 306.678,288.829 306.819,289.375 307.176 C 290.611 307.985,294.191 308.784,296.576 308.784 C 298.085 308.784,298.828 308.933,298.953 309.261 C 299.154 309.784,302.782 310.914,304.261 310.914 C 304.774 310.914,305.293 311.076,305.416 311.274 C 305.722 311.769,307.995 312.689,308.913 312.689 C 309.620 312.689,310.172 313.126,312.711 315.696 C 313.707 316.704,314.230 319.077,313.455 319.077 C 313.291 319.077,312.975 319.476,312.753 319.965 C 312.531 320.453,312.118 320.852,311.836 320.852 C 311.554 320.852,310.872 321.228,310.320 321.687 C 309.768 322.146,308.461 322.804,307.414 323.148 C 306.368 323.492,305.255 324.075,304.940 324.443 C 304.500 324.956,303.885 325.111,302.283 325.111 C 300.375 325.111,298.383 325.780,297.753 326.632 C 297.639 326.785,296.282 326.972,294.736 327.047 C 291.597 327.199,289.145 327.946,288.971 328.803 C 288.805 329.623,295.920 329.656,296.234 328.838 C 296.346 328.545,296.820 328.305,297.287 328.305 C 297.806 328.305,298.137 328.098,298.137 327.773 C 298.137 327.344,298.690 327.240,300.987 327.240 C 303.194 327.240,303.884 327.120,304.042 326.708 C 304.154 326.415,304.469 326.176,304.741 326.176 C 305.013 326.176,305.235 326.016,305.235 325.821 C 305.235 325.624,306.181 325.466,307.362 325.466 C 309.262 325.466,309.596 325.352,310.506 324.401 C 311.065 323.815,311.869 323.336,312.292 323.336 C 312.863 323.336,313.116 323.061,313.274 322.272 C 313.439 321.447,313.677 321.207,314.330 321.207 C 314.995 321.207,315.173 321.017,315.173 320.308 C 315.173 319.814,315.413 319.318,315.705 319.206 C 315.998 319.093,316.238 318.694,316.238 318.318 C 316.238 317.943,315.998 317.543,315.705 317.431 C 315.358 317.298,315.173 316.746,315.173 315.845 C 315.173 314.618,315.076 314.463,314.309 314.463 C 313.631 314.463,313.421 314.254,313.333 313.487 C 313.233 312.614,313.062 312.500,311.713 312.402 C 310.304 312.300,310.204 312.223,310.204 311.248 C 310.204 310.219,310.176 310.204,308.252 310.204 C 307.178 310.204,306.300 310.063,306.300 309.891 C 306.300 309.718,305.964 309.489,305.554 309.382 C 305.144 309.275,304.914 309.017,305.043 308.808 C 305.202 308.551,304.302 308.429,302.239 308.429 C 299.776 308.429,299.201 308.329,299.201 307.897 C 299.201 307.515,298.811 307.365,297.820 307.365 C 296.919 307.365,296.367 307.179,296.234 306.832 C 296.077 306.424,295.403 306.300,293.335 306.300 C 291.840 306.300,290.729 306.159,290.838 305.982 C 291.119 305.528,290.445 305.357,288.025 305.269 C 286.773 305.223,285.668 304.982,285.335 304.681 C 284.382 303.818,276.139 303.947,276.368 304.821 M160.870 329.266 C 159.743 329.483,159.878 329.981,161.139 330.258 C 161.726 330.387,162.126 330.623,162.028 330.781 C 161.603 331.469,171.779 331.852,172.805 331.186 C 173.546 330.706,173.020 330.201,171.526 329.958 C 170.789 329.838,169.468 329.584,168.589 329.393 C 167.001 329.048,162.394 328.972,160.870 329.266 M277.610 329.734 C 272.490 330.845,273.139 331.322,279.770 331.322 C 283.453 331.322,284.807 331.205,284.916 330.878 C 284.997 330.634,285.460 330.435,285.945 330.435 C 286.429 330.435,287.175 330.242,287.601 330.007 C 289.543 328.936,282.209 328.736,277.610 329.734 M176.069 331.076 C 175.076 331.383,174.647 332.209,175.481 332.209 C 175.790 332.209,176.043 332.449,176.043 332.742 C 176.043 333.202,177.381 333.274,185.955 333.274 C 194.118 333.274,195.958 333.365,196.380 333.786 C 196.801 334.208,198.756 334.304,207.465 334.328 C 216.057 334.353,218.110 334.451,218.424 334.853 C 218.958 335.537,234.288 335.469,234.516 334.783 C 234.629 334.446,236.492 334.339,242.228 334.339 C 248.623 334.339,249.823 334.257,249.995 333.807 C 250.170 333.351,251.649 333.274,260.301 333.274 C 268.806 333.274,270.486 333.190,270.934 332.742 C 271.227 332.449,271.877 332.209,272.379 332.209 C 272.919 332.209,273.292 332.009,273.292 331.719 C 273.292 330.978,268.287 330.704,262.822 331.144 C 260.284 331.349,255.173 331.768,251.464 332.076 C 238.478 333.153,208.880 333.136,195.918 332.044 C 183.501 330.997,177.302 330.695,176.069 331.076 " stroke="none" fill="#c8b3c0" fill-rule="evenodd"></path></g></svg>